<svg xmlns="http://www.w3.org/2000/svg" width="15" height="15" viewBox="0 0 15 15" fill="none"><g clip-path="url(#clip0_2471_6091)"><path fill-rule="evenodd" clip-rule="evenodd" d="M7.4998 0.201172C11.4762 0.201172 14.6998 3.42473 14.6998 7.40117C14.6998 11.3776 11.4762 14.6012 7.4998 14.6012C3.52336 14.6012 0.299805 11.3776 0.299805 7.40117C0.299805 3.42473 3.52336 0.201172 7.4998 0.201172Z" fill="white"></path><path d="M8.43541 14.5412V8.97869H10.0045L10.2125 7.02095H8.43541L8.43805 6.04101C8.43805 5.53038 8.48659 5.25691 9.22047 5.25691H10.2015V3.29883H8.63205C6.74683 3.29883 6.08339 4.2485 6.08339 5.84578V7.0211H4.9082V8.97902H6.08339V14.4624C6.54121 14.5535 7.01452 14.6017 7.49914 14.6017C7.81221 14.6017 8.12495 14.5815 8.43541 14.5412Z" fill="#56111C"></path></g><defs><clipPath id="clip0_2471_6091"><rect width="14.4" height="14.4" fill="white" transform="translate(0.299805 0.201172)"></rect></clipPath></defs></svg>