<svg xmlns="http://www.w3.org/2000/svg" width="15" height="15" viewBox="0 0 15 15" fill="none"><g clip-path="url(#clip0_2471_6102)"><path d="M5.13985 7.40187C5.13985 6.20898 6.10666 5.2417 7.29959 5.2417C8.49253 5.2417 9.45985 6.20898 9.45985 7.40187C9.45985 8.59476 8.49253 9.56205 7.29959 9.56205C6.10666 9.56205 5.13985 8.59476 5.13985 7.40187ZM3.97206 7.40187C3.97206 9.2396 5.46179 10.7293 7.29959 10.7293C9.1374 10.7293 10.6271 9.2396 10.6271 7.40187C10.6271 5.56415 9.1374 4.07447 7.29959 4.07447C5.46179 4.07447 3.97211 5.56404 3.97211 7.40187H3.97206ZM9.98128 3.94254C9.98122 4.09633 10.0268 4.24669 10.1122 4.3746C10.1976 4.50251 10.319 4.60223 10.461 4.66114C10.6031 4.72005 10.7595 4.73551 10.9103 4.70557C11.0612 4.67563 11.1998 4.60162 11.3086 4.49292C11.4174 4.38421 11.4915 4.24569 11.5215 4.09486C11.5516 3.94403 11.5363 3.78767 11.4775 3.64556C11.4187 3.50345 11.319 3.38197 11.1912 3.29647C11.0634 3.21098 10.913 3.16531 10.7592 3.16525H10.7589C10.5528 3.16535 10.3551 3.24726 10.2093 3.393C10.0635 3.53874 9.98146 3.73639 9.98128 3.94254ZM4.68157 12.6765C4.04977 12.6477 3.70637 12.5425 3.47816 12.4536C3.17561 12.3358 2.95974 12.1955 2.73277 11.9689C2.50581 11.7422 2.36532 11.5266 2.24805 11.224C2.15909 10.9959 2.05385 10.6524 2.02513 10.0207C1.99371 9.33763 1.98744 9.13245 1.98744 7.40198C1.98744 5.67151 1.99423 5.46689 2.02513 4.78328C2.0539 4.15151 2.15992 3.80869 2.24805 3.57992C2.36584 3.27738 2.50612 3.06152 2.73277 2.83456C2.95943 2.60761 3.17509 2.46712 3.47816 2.34986C3.70627 2.2609 4.04977 2.15567 4.68157 2.12695C5.36464 2.09553 5.56983 2.08926 7.29959 2.08926C9.02936 2.08926 9.23476 2.09595 9.9184 2.12705C10.5502 2.15582 10.893 2.26184 11.1218 2.34996C11.4244 2.46723 11.6402 2.60802 11.8672 2.83467C12.0942 3.06131 12.2341 3.27748 12.3519 3.58002C12.4409 3.80812 12.5461 4.15161 12.5748 4.78338C12.6063 5.467 12.6125 5.67161 12.6125 7.40208C12.6125 9.13255 12.6063 9.33716 12.5748 10.0208C12.5461 10.6526 12.4403 10.9959 12.3519 11.2241C12.2341 11.5267 12.0938 11.7425 11.8672 11.969C11.6405 12.1954 11.4244 12.3359 11.1218 12.4537C10.8937 12.5426 10.5502 12.6479 9.9184 12.6766C9.23533 12.708 9.03014 12.7143 7.29959 12.7143C5.56905 12.7143 5.36443 12.708 4.68157 12.6766V12.6765ZM4.62791 0.961118C3.93805 0.992533 3.46665 1.10192 3.05497 1.2621C2.62888 1.42752 2.2677 1.64945 1.90703 2.00953C1.54637 2.36961 1.325 2.73083 1.15958 3.15742C0.999383 3.56934 0.889997 4.04047 0.85858 4.7303C0.826646 5.42122 0.819336 5.64211 0.819336 7.40187C0.819336 9.16163 0.826646 9.38253 0.85858 10.0734C0.889997 10.7633 0.999383 11.2344 1.15958 11.6463C1.325 12.0724 1.54642 12.4343 1.90703 12.7942C2.26765 13.1541 2.62837 13.3758 3.05497 13.5416C3.46743 13.7018 3.93805 13.8112 4.62791 13.8426C5.31923 13.874 5.53976 13.8819 7.29959 13.8819C9.05943 13.8819 9.28032 13.8746 9.97128 13.8426C10.6612 13.8112 11.1323 13.7018 11.5442 13.5416C11.9703 13.3758 12.3315 13.1543 12.6922 12.7942C13.0528 12.4341 13.2737 12.0724 13.4396 11.6463C13.5998 11.2344 13.7097 10.7633 13.7406 10.0734C13.772 9.38201 13.7793 9.16163 13.7793 7.40187C13.7793 5.64211 13.772 5.42122 13.7406 4.7303C13.7092 4.04041 13.5998 3.56908 13.4396 3.15742C13.2737 2.73135 13.0522 2.37018 12.6922 2.00953C12.3321 1.64888 11.9703 1.42752 11.5447 1.2621C11.1323 1.10192 10.6611 0.992015 9.9718 0.961118C9.28074 0.929547 9.05994 0.921875 7.30037 0.921875C5.5408 0.921875 5.31949 0.929184 4.62817 0.961118" fill="white"></path></g><defs><clipPath id="clip0_2471_6102"><rect width="14.4" height="14.4" fill="white" transform="translate(0.0996094 0.201172)"></rect></clipPath></defs></svg>