<svg xmlns="http://www.w3.org/2000/svg" width="15" height="15" viewBox="0 0 15 15" fill="none"><g clip-path="url(#clip0_2471_6094)"><path d="M6.82351 0.24933C4.43054 0.516465 2.046 2.45249 1.94758 5.21805C1.88572 6.90662 2.36516 8.17341 3.97219 8.52912C4.66955 7.29889 3.74723 7.02754 3.60382 6.13755C3.01472 2.49045 7.8105 0.0032839 10.3202 2.54951C12.0566 4.3126 10.9135 9.73685 8.11279 9.17305C5.43018 8.63457 9.42597 4.31682 7.28467 3.46901C5.54407 2.78009 4.61894 5.57657 5.44424 6.96567C4.96059 9.35443 3.91876 11.6054 4.34055 14.6015C5.70857 13.6089 6.16973 11.708 6.54794 9.7256C7.23546 10.1432 7.60242 10.5776 8.47975 10.6451C11.7149 10.8954 13.5216 7.41559 13.0801 4.20574C12.6878 1.36005 9.84776 -0.0881044 6.82351 0.24933Z" fill="white"></path></g><defs><clipPath id="clip0_2471_6094"><rect width="14.4" height="14.4" fill="white" transform="translate(0.5 0.201172)"></rect></clipPath></defs></svg>