<svg xmlns="http://www.w3.org/2000/svg" width="16" height="15" viewBox="0 0 16 15" fill="none"><g clip-path="url(#clip0_2471_6099)"><path d="M8.4152 12.3545L5.4656 12.3006C4.51059 12.2818 3.5532 12.3193 2.61691 12.1246C1.1926 11.8338 1.0917 10.4075 0.986112 9.21122C0.840627 7.52934 0.896949 5.81693 1.1715 4.1491C1.32649 3.21326 1.93644 2.65485 2.87972 2.59408C6.06396 2.37355 9.26938 2.39968 12.4466 2.50257C12.7821 2.512 13.12 2.56355 13.4508 2.62223C15.0841 2.90842 15.1239 4.52464 15.2298 5.88519C15.3354 7.25978 15.2908 8.64143 15.089 10.0067C14.9271 11.137 14.6173 12.085 13.31 12.1765C11.6721 12.2961 10.0718 12.3925 8.42924 12.3618C8.42931 12.3545 8.41988 12.3545 8.4152 12.3545ZM6.68112 9.49273C7.91543 8.78427 9.1262 8.08762 10.3535 7.3839C9.11684 6.67544 7.90838 5.97879 6.68112 5.27508V9.49273Z" fill="white"></path></g><defs><clipPath id="clip0_2471_6099"><rect width="14.4" height="14.4" fill="white" transform="translate(0.899414 0.201172)"></rect></clipPath></defs></svg>