<svg xmlns="http://www.w3.org/2000/svg" width="59" height="59" viewBox="0 0 59 59" fill="none"><circle cx="29.5" cy="29.5" r="29.5" fill="#1453BE"></circle><g clip-path="url(#clip0_3050_7325)"><path fill-rule="evenodd" clip-rule="evenodd" d="M44.2301 31.6568H37.2715C36.7094 31.6568 36.2491 31.1965 36.2491 30.6318L36.2491 17.0225C36.2491 16.4604 36.7094 15.9975 37.2715 15.9975L44.2301 15.9975C44.7921 15.9975 45.2525 16.4579 45.2525 17.0225L45.2525 30.6318C45.2525 31.1965 44.7921 31.6568 44.2301 31.6568ZM29.2142 41.8657C28.675 44.5998 24.1988 42.0819 23.9038 37.6743C23.8147 36.3264 23.9546 34.7571 24.2853 33.0048H17.8888C15.2285 32.9005 12.9064 30.9955 14.5468 27.8672C14.173 26.504 14.117 24.9043 15.1318 24.2735C15.0046 22.1219 15.5998 20.7892 16.7138 19.7362C16.7875 18.6604 17.0164 17.7041 17.5353 16.9691C18.3949 15.7559 19.0918 16.0458 20.4448 16.0458L31.2463 16.0458C32.958 16.0458 33.8914 16.5164 35.0105 17.9203L35.0105 29.9502C31.7906 30.82 30.079 35.2251 29.2142 38.1169V41.8657Z" fill="white"></path></g><defs><clipPath id="clip0_3050_7325"><rect width="31.2524" height="27" fill="white" transform="matrix(-1 0 0 -1 45.2525 43)"></rect></clipPath></defs></svg>