<svg xmlns="http://www.w3.org/2000/svg" width="22" height="23" viewBox="0 0 22 23" fill="none"><path d="M11 0.855469C12.7063 0.855469 14.3209 1.24419 15.7637 1.93753C15.1731 2.40474 14.6256 2.85326 14.1154 3.28496C13.1436 2.93175 12.0951 2.73926 11.0019 2.73926C8.48454 2.73926 6.20455 3.75965 4.55623 5.40984C2.90605 7.06002 1.88566 9.33814 1.88566 11.8555C1.88566 14.3728 2.90605 16.6509 4.55623 18.3011C6.20642 19.9513 8.48454 20.9717 11.0019 20.9717C13.5192 20.9717 15.7992 19.9513 17.4475 18.3011C19.0977 16.6509 20.1181 14.3728 20.1181 11.8555C20.1181 11.2574 20.0601 10.6706 19.9499 10.1044C20.4227 9.48765 20.9067 8.8728 21.402 8.26356C21.7907 9.3886 22.0019 10.5977 22.0019 11.8555C22.0019 14.8923 20.7703 17.6433 18.78 19.6336C16.7897 21.6239 14.0387 22.8555 11.0019 22.8555C7.965 22.8555 5.21407 21.6239 3.22375 19.6336C1.23157 17.6433 0 14.8923 0 11.8555C0 8.8186 1.23157 6.06767 3.22188 4.07735C5.2122 2.08704 7.96313 0.855469 11 0.855469ZM5.87564 10.0483L8.55929 10.0128L8.75926 10.0651C9.30122 10.3772 9.81142 10.7342 10.288 11.1378C10.6318 11.4294 10.9608 11.7471 11.2729 12.0909C12.2353 10.5417 13.2613 9.11949 14.3452 7.8113C15.5319 6.3779 16.7915 5.07718 18.1147 3.89047L18.3763 3.78955H21.3048L20.7142 4.44551C18.8996 6.46199 17.2531 8.54575 15.7655 10.6949C14.2779 12.846 12.9473 15.0661 11.7644 17.3517L11.3962 18.0619L11.0579 17.3386C10.4337 15.9987 9.6862 14.769 8.79477 13.6701C7.90333 12.5712 6.86612 11.5957 5.65698 10.7659L5.87564 10.0483Z" fill="#01A601"></path></svg>