<svg xmlns="http://www.w3.org/2000/svg" width="59" height="59" viewBox="0 0 59 59" fill="none"><circle cx="29.5" cy="29.5" r="29.5" fill="#1453BE"></circle><g clip-path="url(#clip0_3050_7324)"><path fill-rule="evenodd" clip-rule="evenodd" d="M15.0224 27.3432H21.981C22.543 27.3432 23.0034 27.8035 23.0034 28.3682V41.9775C23.0034 42.5396 22.543 43.0025 21.981 43.0025H15.0224C14.4603 43.0025 14 42.5421 14 41.9775V28.3682C14 27.8035 14.4603 27.3432 15.0224 27.3432ZM30.0382 17.1343C30.5774 14.4002 35.0537 16.9181 35.3487 21.3257C35.4377 22.6736 35.2979 24.2429 34.9672 25.9952H41.3637C44.024 26.0995 46.3461 28.0045 44.7056 31.1328C45.0795 32.496 45.1355 34.0957 44.1207 34.7265C44.2478 36.8781 43.6527 38.2108 42.5387 39.2638C42.465 40.3396 42.2361 41.2959 41.7172 42.0309C40.8576 43.2441 40.1607 42.9542 38.8076 42.9542H28.0061C26.2945 42.9542 25.3611 42.4836 24.242 41.0797V29.0498C27.4619 28.18 29.1735 23.7749 30.0382 20.8831V17.1343Z" fill="white"></path></g><defs><clipPath id="clip0_3050_7324"><rect width="31.2524" height="27" fill="white" transform="translate(14 16)"></rect></clipPath></defs></svg>