<svg xmlns="http://www.w3.org/2000/svg" width="512" height="512" viewBox="0 0 512 512">
    <rect fill="#a0a5ab" width="512" height="512" rx="180" ry="180"/>
    <path fill="rgb(255, 255, 255)" d="M362,152H108.18a8.09,8.09,0,0,0-8.18,8.18V361.94A50.18,50.18,0,0,0,150.62,412H361.94A50.06,50.06,0,0,0,412,361.94V202.19A50.05,50.05,0,0,0,362,152Zm19,198.38a30.86,30.86,0,0,1-30.86,30.86H161.86A30.86,30.86,0,0,1,131,350.38V202.54a19.78,19.78,0,0,1,19.78-19.78H350.14A30.86,30.86,0,0,1,381,213.62ZM257,130H247a15,15,0,0,1-15-15h0a15,15,0,0,1,15-15h10a15,15,0,0,1,15,15h0A15,15,0,0,1,257,130ZM226,242.76H176a14.74,14.74,0,0,1-15-15h0a15,15,0,0,1,15-15h50a15,15,0,0,1,15,15h0A14.74,14.74,0,0,1,226,242.76Zm109.5,110h-50a14.73,14.73,0,0,1-15-15v-55a15,15,0,0,1,15-15h50a15,15,0,0,1,15,15v55A14.74,14.74,0,0,1,335.5,352.76Zm-109.5-55H176a14.74,14.74,0,0,1-15-15h0a15,15,0,0,1,15-15h50a15,15,0,0,1,15,15h0A14.74,14.74,0,0,1,226,297.76Zm1,55H177a14.73,14.73,0,0,1-15-15h0a15,15,0,0,1,15-15h50a15,15,0,0,1,15,15h0A14.74,14.74,0,0,1,227,352.76Zm108.5-110h-50a14.74,14.74,0,0,1-15-15h0a15,15,0,0,1,15-15h50a15,15,0,0,1,15,15h0A14.74,14.74,0,0,1,335.5,242.76ZM327,130H317a15,15,0,0,1-15-15h0a15,15,0,0,1,15-15h10a15,15,0,0,1,15,15h0A15,15,0,0,1,327,130Zm70,0H387a15,15,0,0,1-15-15h0a15,15,0,0,1,15-15h10a15,15,0,0,1,15,15h0A15,15,0,0,1,397,130Zm-209.41,0H108.33a8.11,8.11,0,0,1-8.33-8v-7.55A14.43,14.43,0,0,1,114.42,100h73.17A14.41,14.41,0,0,1,202,114.41v1.18A14.41,14.41,0,0,1,187.59,130Z"/>
</svg>