<svg xmlns="http://www.w3.org/2000/svg" width="23" height="28" viewBox="0 0 23 28" fill="none"><g opacity="0.3"><path d="M11.2897 28.0009C16.6791 28.0009 21.0481 27.1944 21.0481 26.1994C21.0481 25.2045 16.6791 24.3979 11.2897 24.3979C5.90025 24.3979 1.53125 25.2045 1.53125 26.1994C1.53125 27.1944 5.90025 28.0009 11.2897 28.0009Z" fill="#000072"></path></g><path d="M20.7295 18.174C20.2082 19.0785 19.3345 19.8927 17.8977 20.3469L17.2695 18.3969C17.2695 18.3969 18.2907 18.092 18.9299 16.9486C19.2189 16.4311 19.4297 15.7413 19.4325 14.8307C19.4341 14.3039 19.8465 13.8701 20.3717 13.8337C20.3953 13.8321 20.419 13.8315 20.4427 13.8315C20.9772 13.8315 21.4242 14.2516 21.4501 14.7938C21.4925 15.6818 21.4061 17.0036 20.7295 18.174Z" fill="#FFA910"></path><path d="M20.7293 18.174C19.8022 17.9857 19.2528 17.4985 18.9297 16.9485C19.2187 16.4311 19.4296 15.7413 19.4323 14.8307C19.434 14.3039 19.8463 13.8701 20.3715 13.8337C20.3952 13.8321 20.4188 13.8315 20.4425 13.8315C20.977 13.8315 21.4241 14.2516 21.4499 14.7938C21.4923 15.6818 21.4059 17.0036 20.7293 18.174Z" fill="white"></path><g opacity="0.3"><path d="M21.4488 14.7927C21.4239 14.272 21.0105 13.8652 20.5045 13.8335C20.6054 13.9821 20.6688 14.1592 20.678 14.3523C20.7204 15.2403 20.634 16.562 19.9574 17.7324C19.5079 18.5123 18.7961 19.2249 17.6875 19.6976L17.8963 20.3457C19.3331 19.8915 20.2068 19.0773 20.7281 18.1728C21.4047 17.0025 21.4911 15.6807 21.4488 14.7927Z" fill="#000072"></path></g><path d="M17.7379 20.6572L16.957 18.2319L17.1989 18.1597C17.2827 18.134 19.1778 17.5199 19.1856 14.8298C19.1875 14.1781 19.7013 13.632 20.3553 13.5866C20.6952 13.563 21.0225 13.6746 21.2771 13.901C21.5322 14.1278 21.6818 14.4408 21.6982 14.7822C21.7363 15.5767 21.6747 16.7578 21.1644 17.8731C20.5607 19.1929 19.4869 20.1046 17.9728 20.583L17.7379 20.6572ZM17.5771 18.5413L18.057 20.0317C20.9555 18.9859 21.2762 16.3248 21.2033 14.806C21.1933 14.5987 21.1026 14.4088 20.9479 14.2712C20.7937 14.1342 20.5956 14.0663 20.3896 14.0809C19.9934 14.1084 19.6822 14.438 19.681 14.8312C19.6764 16.4274 19.048 17.3742 18.5216 17.8874C18.1632 18.2368 17.8037 18.4376 17.5771 18.5413Z" fill="#000072"></path><path d="M14.5781 23.1095C14.5781 23.7183 14.6486 24.2623 14.7383 24.7065C14.9024 25.5229 15.5068 26.1835 16.3089 26.4076C17.5272 26.7478 18.5781 26.6421 19.2536 26.4896C19.8157 26.3625 20.2445 25.9017 20.3167 25.3302C20.3403 25.142 20.3403 24.968 20.3222 24.8073C20.1702 23.4822 18.7488 23.066 18.7488 23.066C18.8044 22.9504 18.8551 22.8375 18.9007 22.7263C18.9971 22.4913 19.072 22.2655 19.127 22.0492C19.241 21.6066 19.2729 21.2025 19.2454 20.8348C19.225 20.5617 19.1716 20.3085 19.094 20.0751C18.8198 19.252 18.2429 18.6707 17.7408 18.2974C17.2486 17.9313 16.555 18.0293 16.1757 18.5116C14.9227 20.1053 14.5776 21.7651 14.5781 23.1095Z" fill="#FFA910"></path><path d="M14.5781 23.1094C14.5781 23.7183 14.6486 24.2622 14.7383 24.7064C14.9024 25.5229 15.5068 26.1835 16.3089 26.4075C17.5272 26.7478 18.5781 26.642 19.2536 26.4896C19.8157 26.3624 20.2445 25.9016 20.3167 25.3302C20.5358 23.5895 18.7488 23.0659 18.7488 23.0659C18.7488 23.0659 16.9558 24.353 14.5781 23.1094Z" fill="white"></path><g opacity="0.3"><path d="M14.5781 23.1095C14.5781 23.7183 14.6486 24.2622 14.7383 24.7065C14.9024 25.5229 15.5068 26.1835 16.3089 26.4076C17.5272 26.7478 18.5781 26.6421 19.2536 26.4896C19.8157 26.3625 20.2445 25.9017 20.3167 25.3302C20.3403 25.142 20.3403 24.968 20.3222 24.8073C19.993 25.1299 19.4953 25.4156 18.7488 25.5873C16.0772 26.2006 16.6723 23.6512 16.6723 23.6512C18.1763 23.6969 18.7488 23.066 18.7488 23.066C15.5701 23.2873 17.7408 18.2974 17.7408 18.2974C17.2487 17.9313 16.555 18.0293 16.1757 18.5116C14.9227 20.1053 14.5776 21.7651 14.5781 23.1095Z" fill="#000072"></path></g><g opacity="0.7"><path d="M20.038 25.7156C20.0616 25.5273 20.0616 25.3534 20.0435 25.1926C19.8915 23.8675 18.4701 23.4513 18.4701 23.4513C18.5257 23.3357 18.5764 23.2229 18.622 23.1117C18.7184 22.8766 18.7932 22.6509 18.8483 22.4345C18.9623 21.9919 18.9942 21.5879 18.9667 21.2201C18.9463 20.9471 18.8929 20.6938 18.8153 20.4604C18.5411 19.6374 17.9642 19.0561 17.4621 18.6828C16.9699 18.3167 16.2763 18.4147 15.897 18.897C15.8695 18.9319 15.843 18.9669 15.8164 19.0019C15.9261 18.8381 16.0442 18.6745 16.1723 18.5116C16.5516 18.0293 17.2452 17.9314 17.7374 18.2974C18.2394 18.6707 18.8164 19.252 19.0905 20.075C19.1682 20.3085 19.2216 20.5617 19.2419 20.8348C19.2694 21.2025 19.2375 21.6066 19.1236 22.0492C19.0685 22.2655 18.9936 22.4913 18.8973 22.7263C18.8516 22.8375 18.801 22.9504 18.7454 23.066C18.7454 23.066 20.1668 23.4822 20.3187 24.8073C20.3369 24.968 20.3369 25.142 20.3132 25.3302C20.2743 25.639 20.1305 25.9149 19.9184 26.1239C19.9786 25.9972 20.0197 25.86 20.038 25.7156Z" fill="white"></path></g><path d="M19.102 26.3856L19.123 26.3186L19.1457 26.2428C19.1599 26.1911 19.1747 26.139 19.1876 26.086C19.2144 25.9802 19.2375 25.8721 19.2561 25.7624C19.2747 25.6526 19.2892 25.5412 19.3013 25.4276C19.3162 25.3134 19.3217 25.1983 19.3369 25.0763L19.3372 25.0736C19.341 25.0432 19.3688 25.0215 19.3993 25.0253C19.4173 25.0276 19.4324 25.0385 19.4408 25.0532C19.5029 25.163 19.5501 25.2812 19.5824 25.4031C19.617 25.525 19.6348 25.6507 19.645 25.7772C19.656 25.9039 19.6548 26.0317 19.6442 26.1594C19.6388 26.2233 19.6305 26.2872 19.6191 26.3511C19.6127 26.3831 19.6072 26.415 19.5987 26.4473C19.5949 26.4633 19.5911 26.4797 19.5861 26.4962L19.5786 26.5213L19.5692 26.5503C19.5273 26.6805 19.3878 26.752 19.2577 26.7101C19.1281 26.6684 19.0567 26.53 19.0974 26.4003L19.102 26.3856Z" fill="#000072"></path><path d="M17.8207 26.4813L17.8418 26.4143L17.8645 26.3385C17.8786 26.2868 17.8934 26.2347 17.9063 26.1817C17.9331 26.0759 17.9563 25.9678 17.9749 25.8581C17.9935 25.7483 18.008 25.6369 18.0201 25.5233C18.035 25.4091 18.0404 25.294 18.0556 25.1721L18.056 25.1694C18.0598 25.1389 18.0876 25.1172 18.1181 25.121C18.1361 25.1233 18.1512 25.1342 18.1596 25.1489C18.2217 25.2587 18.2689 25.3769 18.3012 25.4988C18.3358 25.6207 18.3535 25.7464 18.3637 25.8729C18.3747 25.9996 18.3735 26.1274 18.363 26.2551C18.3575 26.319 18.3492 26.3829 18.3379 26.4468C18.3315 26.4788 18.3259 26.5107 18.3175 26.543C18.3137 26.559 18.3098 26.5754 18.3048 26.5919L18.2973 26.617L18.288 26.646C18.2461 26.7762 18.1066 26.8477 17.9764 26.8058C17.8469 26.7641 17.7754 26.6257 17.8161 26.496L17.8207 26.4813Z" fill="#000072"></path><path d="M18.8892 23.2686C18.8763 23.2762 18.8677 23.2805 18.858 23.2856L18.8299 23.2998C18.8114 23.3091 18.793 23.3178 18.7749 23.326C18.7385 23.3433 18.702 23.3583 18.6657 23.3739C18.5927 23.4033 18.5206 23.4325 18.4473 23.4579C18.3011 23.5094 18.1532 23.5523 18.0036 23.5849C17.8542 23.6174 17.7046 23.6446 17.554 23.6598C17.4041 23.6784 17.2533 23.683 17.1043 23.6857C17.0732 23.6862 17.0475 23.6614 17.0469 23.6303C17.0464 23.6022 17.0665 23.5785 17.0933 23.5737L17.0956 23.5733C17.2378 23.5477 17.3783 23.5174 17.5142 23.4716C17.6505 23.4284 17.7829 23.3749 17.9104 23.313C18.0383 23.2522 18.1615 23.183 18.2791 23.1078C18.3379 23.0702 18.3955 23.0314 18.4506 22.9901C18.4776 22.969 18.5052 22.9485 18.5309 22.927C18.5441 22.9164 18.5568 22.9057 18.569 22.895L18.5869 22.8793C18.5923 22.8742 18.599 22.8684 18.6011 22.8655C18.6845 22.7505 18.8454 22.7249 18.9605 22.8083C19.0755 22.8918 19.1011 23.0526 19.0176 23.1677C18.9968 23.1964 18.9711 23.2196 18.9424 23.2369L18.8892 23.2686Z" fill="#000072"></path><path d="M17.9471 26.8817C17.4369 26.8817 16.8594 26.8197 16.2404 26.6467C15.3472 26.397 14.6779 25.6726 14.4937 24.756C14.2243 23.4153 14.0591 20.8014 15.9793 18.3592C16.4465 17.765 17.2846 17.6508 17.8874 18.0992C18.8284 18.7993 20.2024 20.3429 19.0839 22.9262C19.7828 23.2293 20.7317 24.0032 20.5608 25.3618C20.4767 26.0307 19.9727 26.5812 19.3067 26.7317C18.949 26.8125 18.4856 26.8817 17.9471 26.8817ZM17.0679 18.3222C16.8055 18.3222 16.5459 18.4403 16.3688 18.6655C14.6616 20.8368 14.671 23.1229 14.9795 24.6585C15.1267 25.3912 15.661 25.9702 16.3738 26.1695C17.5464 26.4972 18.5566 26.3933 19.1975 26.2484C19.6607 26.1438 20.011 25.7626 20.0692 25.2999C20.2586 23.794 18.7417 23.3233 18.6771 23.304L18.3984 23.2208L18.5242 22.9587C19.6304 20.6673 18.6276 19.2675 17.5916 18.4967C17.4336 18.3791 17.25 18.3222 17.0679 18.3222Z" fill="#000072"></path><path d="M7.99924 23.1114C7.99924 23.7203 7.92878 24.2642 7.83904 24.7085C7.67499 25.5249 7.07053 26.1855 6.26843 26.4096C5.05014 26.7498 3.99922 26.6441 3.32373 26.4916C2.76166 26.3644 2.33281 25.9036 2.26069 25.3322C2.23703 25.1439 2.23703 24.97 2.25519 24.8092C2.40713 23.4841 3.82856 23.0679 3.82856 23.0679C3.77295 22.9523 3.72231 22.8395 3.67662 22.7283C3.58027 22.4932 3.5054 22.2675 3.45035 22.0511C3.3364 21.6085 3.30447 21.2045 3.33199 20.8367C3.35236 20.5637 3.40576 20.3104 3.48338 20.077C3.75753 19.254 4.33447 18.6726 4.83654 18.2994C5.3287 17.9333 6.02234 18.0313 6.40165 18.5135C7.65462 20.1073 7.99979 21.7671 7.99924 23.1114Z" fill="#FFA910"></path><path d="M7.99935 23.1094C7.99935 23.7183 7.92889 24.2622 7.83915 24.7064C7.6751 25.5229 7.07064 26.1835 6.26854 26.4075C5.05025 26.7478 3.99933 26.642 3.32385 26.4896C2.76178 26.3624 2.33292 25.9016 2.26081 25.3302C2.04171 23.5895 3.82867 23.0659 3.82867 23.0659C3.82867 23.0659 5.62168 24.353 7.99935 23.1094Z" fill="white"></path><g opacity="0.3"><path d="M7.99924 23.1114C7.99924 23.7203 7.92878 24.2642 7.83904 24.7085C7.67499 25.5249 7.07053 26.1855 6.26843 26.4095C5.05014 26.7498 3.99922 26.6441 3.32373 26.4916C2.76166 26.3644 2.33281 25.9036 2.26069 25.3322C2.23703 25.1439 2.23703 24.97 2.25519 24.8092C2.5844 25.1318 3.08206 25.4175 3.82856 25.5893C6.5002 26.2026 5.90509 23.6531 5.90509 23.6531C4.40109 23.6988 3.82856 23.0679 3.82856 23.0679C7.00721 23.2892 4.83654 18.2994 4.83654 18.2994C5.3287 17.9333 6.02234 18.0313 6.40165 18.5135C7.65462 20.1073 7.99979 21.7671 7.99924 23.1114Z" fill="#000072"></path></g><g opacity="0.7"><path d="M2.53595 25.7175C2.51227 25.5293 2.51227 25.3553 2.53045 25.1946C2.68238 23.8695 4.10381 23.4533 4.10381 23.4533C4.04821 23.3377 3.99756 23.2248 3.95187 23.1136C3.85553 22.8786 3.78066 22.6528 3.72561 22.4365C3.61165 21.9939 3.57972 21.5898 3.60725 21.2221C3.62762 20.949 3.68102 20.6958 3.75864 20.4624C4.03279 19.6393 4.60972 19.058 5.1118 18.6848C5.60396 18.3187 6.29761 18.4167 6.6769 18.8989C6.70438 18.9339 6.73088 18.9689 6.7575 19.0039C6.6478 18.84 6.52971 18.6764 6.40165 18.5135C6.02234 18.0313 5.3287 17.9333 4.83654 18.2994C4.33447 18.6726 3.75753 19.254 3.48338 20.077C3.40575 20.3104 3.35235 20.5637 3.33199 20.8367C3.30447 21.2044 3.3364 21.6085 3.45035 22.0511C3.5054 22.2675 3.58027 22.4932 3.67662 22.7283C3.72231 22.8395 3.77296 22.9523 3.82856 23.0679C3.82856 23.0679 2.40713 23.4841 2.25519 24.8092C2.23703 24.97 2.23703 25.1439 2.26069 25.3322C2.29966 25.641 2.44344 25.9168 2.65548 26.1258C2.59532 25.9992 2.55417 25.8619 2.53595 25.7175Z" fill="white"></path></g><path d="M3.00532 26.5503L2.99597 26.5213L2.9885 26.4962C2.98351 26.4797 2.97966 26.4633 2.97582 26.4473C2.9674 26.415 2.96186 26.3831 2.95543 26.3511C2.9441 26.2872 2.93581 26.2233 2.93033 26.1594C2.9198 26.0317 2.91861 25.9039 2.92959 25.7772C2.93979 25.6507 2.95757 25.525 2.99213 25.4031C3.02445 25.2812 3.07162 25.163 3.13373 25.0532C3.14886 25.0264 3.18279 25.017 3.20953 25.0321C3.22536 25.0411 3.23511 25.0566 3.23731 25.0733L3.23769 25.0763C3.2529 25.1983 3.25836 25.3134 3.27327 25.4276C3.28536 25.5412 3.29986 25.6526 3.31847 25.7624C3.33703 25.8721 3.3602 25.9802 3.387 26.086C3.3999 26.139 3.41471 26.1911 3.42885 26.2428L3.45153 26.3186L3.4726 26.3856L3.47718 26.4002C3.51816 26.5307 3.44562 26.6696 3.31518 26.7106C3.18533 26.7514 3.047 26.6797 3.00532 26.5503Z" fill="#000072"></path><path d="M4.28657 26.646L4.27722 26.617L4.26974 26.5919C4.26476 26.5754 4.2609 26.559 4.25706 26.543C4.24865 26.5107 4.2431 26.4788 4.23667 26.4468C4.22536 26.3829 4.21707 26.319 4.21158 26.2551C4.20105 26.1274 4.19986 25.9996 4.21084 25.8729C4.22104 25.7464 4.23881 25.6207 4.27338 25.4988C4.30569 25.3769 4.35286 25.2587 4.41497 25.1489C4.4301 25.1221 4.46404 25.1127 4.49078 25.1278C4.5066 25.1368 4.51636 25.1523 4.51856 25.1691L4.51893 25.1721C4.53414 25.294 4.53962 25.4091 4.55452 25.5233C4.56661 25.6369 4.58111 25.7483 4.59971 25.8581C4.61827 25.9678 4.64145 26.0759 4.66824 26.1817C4.68115 26.2347 4.69596 26.2868 4.71009 26.3385L4.73278 26.4143L4.75384 26.4813L4.75843 26.4959C4.79941 26.6264 4.72688 26.7654 4.59643 26.8063C4.46658 26.8471 4.32826 26.7753 4.28657 26.646Z" fill="#000072"></path><path d="M3.97341 22.8655C3.97551 22.8684 3.98218 22.8743 3.98763 22.8793L4.00553 22.8951C4.01772 22.9058 4.03039 22.9164 4.04361 22.927C4.06929 22.9485 4.09687 22.9691 4.12387 22.9902C4.17903 23.0314 4.23658 23.0702 4.29537 23.1079C4.41304 23.183 4.53618 23.2523 4.66407 23.313C4.79155 23.3749 4.92399 23.4285 5.0603 23.4717C5.19621 23.5174 5.33666 23.5477 5.47887 23.5733L5.48121 23.5737C5.51188 23.5793 5.53226 23.6086 5.52673 23.6393C5.52175 23.6669 5.4974 23.6862 5.47018 23.6857C5.32115 23.683 5.17039 23.6784 5.02053 23.6598C4.86995 23.6446 4.72033 23.6175 4.57088 23.5849C4.42131 23.5523 4.27343 23.5094 4.12722 23.4579C4.05392 23.4325 3.98178 23.4034 3.90876 23.374C3.87249 23.3583 3.83606 23.3433 3.79964 23.326C3.78146 23.3179 3.76312 23.3091 3.74463 23.2998L3.71653 23.2857C3.70679 23.2805 3.69817 23.2763 3.68534 23.2686L3.63325 23.2375C3.51124 23.1647 3.47138 23.0067 3.54423 22.8847C3.61708 22.7627 3.77505 22.7229 3.89705 22.7957C3.92754 22.8139 3.95364 22.8386 3.97341 22.8655Z" fill="#000072"></path><path d="M4.62999 26.8817C4.09145 26.8817 3.62813 26.8125 3.27036 26.7317C2.60442 26.5812 2.10044 26.0307 2.01631 25.3617C1.84542 24.0032 2.79432 23.2293 3.49318 22.9262C2.37473 20.3429 3.74869 18.7993 4.68976 18.0991C5.29246 17.6508 6.13052 17.765 6.59776 18.3592C8.518 20.8014 8.35278 23.4153 8.08337 24.756C7.89924 25.6725 7.22995 26.397 6.33668 26.6466C5.71779 26.8196 5.14013 26.8816 4.62999 26.8817ZM4.9855 18.4967C3.94946 19.2674 2.94668 20.6672 4.05289 22.9587L4.17996 23.2219L3.89946 23.3041C3.83539 23.3233 2.31848 23.794 2.5079 25.2999C2.5661 25.7626 2.9164 26.1437 3.37959 26.2484C4.02055 26.3933 5.0307 26.4972 6.20331 26.1695C6.91613 25.9702 7.4504 25.3912 7.59761 24.6585C7.90616 23.1229 7.91557 20.8368 6.20829 18.6654C5.90826 18.2839 5.37117 18.2098 4.9855 18.4967Z" fill="#000072"></path><path d="M16.2922 23.208C16.2432 23.4474 16.3147 23.6946 16.4755 23.8785C16.6693 24.1003 16.9258 24.4598 17.0513 24.9179C17.2721 25.7238 16.7452 26.5474 15.9261 26.712C15.0546 26.887 13.7405 27.0037 12.3918 26.582C11.9877 26.456 11.6315 26.2022 11.4047 25.8449C11.3876 25.819 11.3717 25.7921 11.3563 25.7645C11.3122 25.6847 11.2891 25.5955 11.2891 25.5041C11.2891 25.5955 11.266 25.6847 11.2219 25.7645C11.2065 25.7921 11.1906 25.819 11.1735 25.8449C10.9467 26.2022 10.5905 26.456 10.1864 26.582C8.83768 27.0037 7.5236 26.887 6.65214 26.712C5.83298 26.5474 5.30614 25.7238 5.52689 24.9179C5.5401 24.8694 5.55497 24.8221 5.57148 24.7758C5.7058 24.3855 5.92931 24.0767 6.10272 23.8785C6.26347 23.6946 6.33504 23.4474 6.28604 23.208C6.27063 23.1314 6.25357 23.0571 6.23485 22.9845C6.2343 22.9823 6.2332 22.98 6.23265 22.9773C6.22549 22.9465 6.21723 22.9156 6.20897 22.8859C6.20787 22.8832 6.20787 22.8815 6.20787 22.8815C6.16437 22.7224 6.11593 22.5732 6.06528 22.435C5.94307 22.0992 5.81095 21.8295 5.72397 21.6511C5.72341 21.6506 5.72341 21.6495 5.72286 21.6489C5.56596 21.3263 5.43329 20.9927 5.32594 20.6497C5.31768 20.6222 5.30888 20.5952 5.30117 20.5683C5.20263 20.244 5.12666 19.9324 5.06886 19.6335C4.6824 17.6318 5.12721 16.2027 5.41128 15.5525C5.52468 15.2938 5.61222 15.1584 5.61222 15.1584C5.61222 15.1584 5.89023 14.7631 6.90317 14.402C7.75481 14.0975 9.12613 13.8179 11.2891 13.8179C16.0235 13.8179 16.966 15.1584 16.966 15.1584C16.966 15.1584 17.0535 15.2938 17.1669 15.5525C17.4967 16.3084 18.0439 18.1152 17.2523 20.6497C17.1449 20.9932 17.0117 21.328 16.8542 21.6511C16.7078 21.9511 16.4347 22.5077 16.2922 23.208Z" fill="#FFA910"></path><path d="M15.6738 14.402C14.8222 14.0975 13.4509 13.8179 11.2879 13.8179C9.12492 13.8179 7.7536 14.0975 6.90196 14.402C6.05306 16.299 6.77369 18.0882 6.77369 18.0882C7.75305 20.7191 11.2879 21.5564 11.2879 21.5564C11.2879 21.5564 14.8227 20.7191 15.8021 18.0882C15.8021 18.0882 16.5227 16.299 15.6738 14.402Z" fill="white"></path><path d="M11.2892 25.5027C11.2892 25.5941 11.2661 25.6833 11.2221 25.7631C11.2067 25.7906 11.1907 25.8176 11.1736 25.8435C10.9468 26.2008 10.5906 26.4546 10.1866 26.5806C8.83781 27.0023 7.52373 26.8856 6.65228 26.7105C5.83311 26.5459 5.30627 25.7224 5.52703 24.9164C5.65254 24.4584 5.90908 24.0989 6.10286 23.8771C6.26361 23.6932 6.33518 23.446 6.28618 23.2065C6.28618 23.2065 7.23527 25.2005 9.80065 24.0147C9.80066 24.0147 11.2892 23.5231 11.2892 25.5027Z" fill="white"></path><path d="M11.2891 25.5027C11.2891 25.5941 11.3122 25.6833 11.3562 25.7631C11.3716 25.7906 11.3876 25.8176 11.4047 25.8435C11.6315 26.2008 11.9877 26.4546 12.3917 26.5806C13.7405 27.0023 15.0546 26.8856 15.926 26.7105C16.7452 26.5459 17.272 25.7224 17.0513 24.9164C16.9258 24.4584 16.6692 24.0989 16.4754 23.8771C16.3147 23.6932 16.2431 23.446 16.2921 23.2065C16.2921 23.2065 15.343 25.2005 12.7777 24.0147C12.7776 24.0147 11.2891 23.5231 11.2891 25.5027Z" fill="white"></path><g opacity="0.3"><path d="M17.0514 24.9171C17.0382 24.8686 17.0233 24.8213 17.0068 24.775C15.7693 26.8516 12.922 25.9372 12.5477 25.5034C12.1464 25.0393 12.7778 24.0153 12.7778 24.0153C15.5254 25.0272 16.2119 23.4175 16.3435 22.9837C16.344 22.9815 16.3451 22.9793 16.3457 22.9765C16.36 22.9286 16.3671 22.8961 16.3693 22.8851C16.3704 22.8824 16.3704 22.8807 16.3704 22.8807C15.2442 23.6196 14.5117 23.6146 14.0371 23.3342C13.2913 22.8936 13.286 21.8205 13.9952 21.323C15.8965 19.9891 15.8034 18.0874 15.8034 18.0874C14.8023 19.1655 13.5546 19.7721 12.6248 20.1012C11.7613 20.4068 10.8172 20.4068 9.95363 20.1012C9.02382 19.7721 7.77612 19.1655 6.77503 18.0874C6.77503 18.0874 6.68194 19.9891 8.58325 21.323C9.29241 21.8205 9.28714 22.8936 8.54132 23.3342C8.06677 23.6146 7.33423 23.6196 6.20799 22.8807C6.20799 22.8807 6.20799 22.8824 6.2091 22.8851C6.2113 22.8961 6.21846 22.9286 6.23277 22.9765C6.23332 22.9793 6.23443 22.9815 6.23498 22.9837C6.36656 23.4175 7.05304 25.0272 9.80065 24.0153C9.80065 24.0153 10.4321 25.0393 10.0308 25.5034C9.65642 25.9372 6.80917 26.8516 5.57161 24.775C5.5551 24.8213 5.54024 24.8686 5.52703 24.9171C5.30627 25.723 5.83311 26.5466 6.65228 26.7112C7.52373 26.8863 8.83781 27.003 10.1866 26.5813C10.5906 26.4552 10.9468 26.2014 11.1736 25.8441C11.1899 25.8194 11.2052 25.7938 11.2199 25.7676C11.2653 25.6869 11.2892 25.5959 11.2892 25.5034C11.2892 25.5959 11.3131 25.6869 11.3585 25.7676C11.3733 25.7938 11.3886 25.8194 11.4048 25.8441C11.6316 26.2014 11.9878 26.4552 12.3919 26.5813C13.7406 27.003 15.0547 26.8862 15.9262 26.7112C16.7453 26.5466 17.2722 25.723 17.0514 24.9171Z" fill="#000072"></path></g><g opacity="0.3"><path d="M17.1697 15.992C15.7709 16.7137 13.8143 17.36 11.2919 17.36C8.76944 17.36 6.81292 16.7137 5.41406 15.992C5.52747 15.7333 5.615 15.5978 5.615 15.5978C5.615 15.5978 5.89301 15.2026 6.90595 14.8414C7.75759 14.537 9.12892 14.2573 11.2919 14.2573C16.0263 14.2573 16.9688 15.5978 16.9688 15.5978C16.9688 15.5978 17.0563 15.7333 17.1697 15.992Z" fill="#000072"></path></g><path d="M6.48701 22.9674L6.50364 23.011C6.51032 23.028 6.51754 23.0451 6.52534 23.0625C6.54075 23.0969 6.55732 23.1315 6.57446 23.1659C6.60929 23.2345 6.64902 23.3008 6.69053 23.3655C6.77619 23.4932 6.87487 23.6107 6.9862 23.7129C7.20897 23.9177 7.48601 24.0553 7.79211 24.1188C8.09753 24.1861 8.42813 24.1784 8.75817 24.1347C9.09027 24.0922 9.42546 24.0214 9.7811 23.9671L9.78165 23.967C9.81099 23.9626 9.83841 23.9827 9.84289 24.0121C9.84598 24.0324 9.83721 24.0518 9.82182 24.0633C9.52904 24.281 9.19438 24.4361 8.83632 24.5323C8.65578 24.5751 8.47136 24.6085 8.28147 24.6201C8.1871 24.6296 8.09101 24.6278 7.99484 24.6279C7.94669 24.6272 7.89831 24.6215 7.84999 24.6179C7.80161 24.6152 7.75333 24.6078 7.705 24.5997C7.51221 24.5693 7.31782 24.5183 7.13623 24.4327C6.95495 24.3479 6.7823 24.239 6.63427 24.1034C6.48496 23.9693 6.35629 23.8147 6.25108 23.6471C6.19837 23.5633 6.15243 23.4757 6.11145 23.3856C6.09096 23.3405 6.07208 23.2946 6.0554 23.2472C6.04687 23.2237 6.03875 23.1996 6.03107 23.175C6.02298 23.149 6.01675 23.1283 6.00774 23.093C5.97398 22.9607 6.0538 22.8262 6.18603 22.7924C6.30904 22.761 6.43408 22.8279 6.47809 22.9439L6.48701 22.9674Z" fill="#000072"></path><path d="M11.2427 21.7993C11.171 21.7855 11.1119 21.7721 11.0482 21.7568C10.9855 21.7419 10.9237 21.7258 10.8624 21.7081C10.7395 21.6736 10.618 21.6362 10.498 21.5943C10.2578 21.5119 10.0222 21.417 9.79206 21.31C9.56135 21.2043 9.33741 21.0839 9.11895 20.9543C8.9 20.8254 8.68964 20.6816 8.4877 20.5268C8.28565 20.3723 8.09087 20.2076 7.91108 20.0271C7.73108 19.8472 7.5569 19.6608 7.4047 19.4566C7.32515 19.3574 7.25775 19.2488 7.18653 19.1441C7.12288 19.0339 7.05508 18.9269 7.00138 18.8117C6.97296 18.7552 6.94478 18.6986 6.91904 18.641C6.89511 18.5823 6.8702 18.5244 6.84778 18.4654C6.83652 18.436 6.82446 18.407 6.81397 18.3773C6.80392 18.3474 6.79462 18.3172 6.78537 18.2871C6.76659 18.227 6.74856 18.1669 6.73214 18.1064C6.72526 18.0811 6.74022 18.0549 6.76557 18.0481C6.78603 18.0425 6.80702 18.0512 6.81796 18.0681L6.81866 18.0692C7.0864 18.4835 7.36143 18.8746 7.68512 19.2247C8.00019 19.5811 8.36344 19.8915 8.75332 20.1622C9.14319 20.4336 9.56382 20.6604 9.99854 20.8539C10.2163 20.9499 10.4384 21.0366 10.663 21.1144C10.7755 21.1528 10.8883 21.1901 11.0018 21.2232C11.0586 21.24 11.1154 21.256 11.1719 21.2715C11.2272 21.2867 11.2877 21.3019 11.3365 21.3128L11.3434 21.3143C11.4769 21.3442 11.5609 21.4766 11.5311 21.6101C11.5018 21.741 11.3735 21.8242 11.2427 21.7993Z" fill="#000072"></path><path d="M11.2436 21.3128C11.2923 21.3019 11.3528 21.2867 11.4082 21.2715C11.4646 21.256 11.5215 21.24 11.5782 21.2232C11.6917 21.1901 11.8046 21.1528 11.9171 21.1144C12.1417 21.0366 12.3637 20.9499 12.5815 20.8539C13.0162 20.6605 13.4369 20.4336 13.8267 20.1622C14.2166 19.8915 14.5799 19.5811 14.8949 19.2247C15.2186 18.8746 15.4937 18.4835 15.7614 18.0692L15.7621 18.0681C15.7763 18.0461 15.8058 18.0397 15.8278 18.054C15.8457 18.0655 15.8532 18.087 15.8479 18.1064C15.8315 18.1669 15.8135 18.227 15.7947 18.2871C15.7854 18.3172 15.7761 18.3475 15.7661 18.3773C15.7556 18.407 15.7435 18.436 15.7323 18.4654C15.7099 18.5244 15.6849 18.5823 15.661 18.641C15.6353 18.6986 15.6071 18.7552 15.5787 18.8117C15.525 18.9269 15.4572 19.0339 15.3935 19.1441C15.3223 19.2488 15.2549 19.3574 15.1754 19.4566C15.0232 19.6608 14.849 19.8473 14.669 20.0271C14.4892 20.2076 14.2944 20.3723 14.0923 20.5268C13.8904 20.6816 13.6801 20.8254 13.4611 20.9543C13.2427 21.0839 13.0187 21.2043 12.788 21.31C12.5578 21.417 12.3223 21.5119 12.082 21.5943C11.9621 21.6362 11.8406 21.6736 11.7177 21.7081C11.6564 21.7258 11.5945 21.7419 11.5319 21.7568C11.4681 21.7721 11.409 21.7855 11.3373 21.7993C11.203 21.825 11.0732 21.737 11.0474 21.6027C11.0222 21.471 11.1063 21.3436 11.2362 21.3144L11.2436 21.3128Z" fill="#000072"></path><path d="M6.33453 26.7113C6.31743 26.6699 6.3061 26.637 6.29429 26.6C6.28278 26.5643 6.27336 26.5279 6.26421 26.4918C6.246 26.4193 6.23237 26.3461 6.22274 26.272C6.20357 26.1238 6.19724 25.9731 6.20919 25.8209C6.22196 25.6689 6.24915 25.5155 6.30468 25.3681C6.36164 25.2215 6.44454 25.0799 6.56222 24.9736C6.59864 24.9407 6.65484 24.9436 6.68773 24.98C6.70607 25.0003 6.7133 25.0267 6.70981 25.0518L6.70855 25.0605C6.68906 25.1961 6.68144 25.3191 6.68093 25.4436C6.68269 25.5686 6.69178 25.6931 6.70365 25.8181C6.71613 25.9433 6.73573 26.0694 6.75468 26.1958L6.78393 26.3858C6.78776 26.4179 6.79443 26.4489 6.79804 26.4808C6.80254 26.5112 6.80777 26.5457 6.8097 26.5709L6.81175 26.5977C6.82221 26.7344 6.71983 26.8538 6.58307 26.8642C6.4732 26.8726 6.3745 26.8079 6.33453 26.7113Z" fill="#000072"></path><path d="M8.09233 26.8891C8.07523 26.8476 8.06392 26.8147 8.05209 26.7777C8.04058 26.742 8.03117 26.7056 8.02201 26.6695C8.00382 26.5971 7.99018 26.5239 7.98055 26.4497C7.96138 26.3016 7.95505 26.1509 7.967 25.9987C7.97977 25.8466 8.00696 25.6932 8.06249 25.5458C8.11945 25.3992 8.20235 25.2576 8.32002 25.1513C8.35646 25.1184 8.41266 25.1213 8.44556 25.1577C8.46388 25.178 8.47112 25.2044 8.46764 25.2295L8.46637 25.2383C8.44688 25.3738 8.43926 25.4968 8.43876 25.6214C8.44052 25.7464 8.4496 25.8708 8.46148 25.9959C8.47394 26.1211 8.49354 26.2472 8.51251 26.3735L8.54175 26.5636C8.54556 26.5956 8.55226 26.6266 8.55586 26.6586C8.56036 26.689 8.56559 26.7234 8.56752 26.7486L8.56956 26.7754C8.58003 26.9122 8.47765 27.0315 8.34088 27.042C8.23102 27.0504 8.13231 26.9856 8.09233 26.8891Z" fill="#000072"></path><path d="M16.5701 23.093C16.5611 23.1283 16.5549 23.149 16.5468 23.175C16.5391 23.1996 16.531 23.2237 16.5225 23.2472C16.5058 23.2946 16.4869 23.3405 16.4664 23.3856C16.4254 23.4757 16.3795 23.5633 16.3268 23.6471C16.2216 23.8147 16.0929 23.9693 15.9436 24.1034C15.7956 24.239 15.6229 24.3479 15.4416 24.4327C15.2601 24.5183 15.0657 24.5693 14.8729 24.5997C14.8245 24.6078 14.7763 24.6152 14.7279 24.618C14.6796 24.6215 14.6312 24.6272 14.583 24.6279C14.4869 24.6278 14.3908 24.6296 14.2964 24.6202C14.1065 24.6085 13.9221 24.5751 13.7415 24.5323C13.3835 24.4361 13.0488 24.281 12.7561 24.0633C12.7322 24.0456 12.7273 24.0119 12.745 23.9881C12.7572 23.9716 12.7771 23.9642 12.7961 23.967L12.7968 23.9671C13.1524 24.0213 13.4876 24.0922 13.8197 24.1347C14.1497 24.1784 14.4803 24.1861 14.7858 24.1188C15.0919 24.0553 15.3689 23.9177 15.5917 23.7129C15.703 23.6107 15.8017 23.4932 15.8873 23.3655C15.9289 23.3008 15.9686 23.2345 16.0034 23.1659C16.0205 23.1315 16.0371 23.0969 16.0525 23.0625C16.0603 23.0451 16.0676 23.028 16.0742 23.011L16.0909 22.9674L16.0998 22.9439C16.1484 22.8164 16.2911 22.7524 16.4187 22.8009C16.5373 22.8461 16.6009 22.9728 16.5701 23.093Z" fill="#000072"></path><path d="M15.7724 26.5709C15.7743 26.5457 15.7795 26.5112 15.784 26.4808C15.7876 26.4489 15.7943 26.4179 15.7981 26.3858L15.8274 26.1958C15.8463 26.0694 15.8659 25.9433 15.8784 25.8181C15.8903 25.6931 15.8994 25.5686 15.9011 25.4436C15.9006 25.3191 15.893 25.1961 15.8735 25.0605L15.8723 25.0522C15.8653 25.0036 15.899 24.9586 15.9476 24.9516C15.9747 24.9477 16.0009 24.9567 16.0198 24.9736C16.1375 25.0799 16.2204 25.2215 16.2774 25.3681C16.3329 25.5155 16.3601 25.6689 16.3729 25.8209C16.3848 25.9731 16.3785 26.1238 16.3593 26.272C16.3497 26.3461 16.3361 26.4193 16.3179 26.4918C16.3087 26.5279 16.2993 26.5643 16.2878 26.6C16.276 26.637 16.2646 26.6698 16.2475 26.7113C16.1952 26.8381 16.0501 26.8985 15.9233 26.8462C15.8214 26.8042 15.7624 26.7022 15.7702 26.598L15.7724 26.5709Z" fill="#000072"></path><path d="M14.0106 26.7486C14.0126 26.7234 14.0178 26.689 14.0223 26.6586C14.0259 26.6266 14.0326 26.5956 14.0364 26.5636L14.0657 26.3735C14.0846 26.2472 14.1042 26.1211 14.1167 25.9959C14.1286 25.8708 14.1376 25.7464 14.1394 25.6214C14.1389 25.4968 14.1313 25.3738 14.1118 25.2383L14.1106 25.2299C14.1036 25.1814 14.1373 25.1363 14.1859 25.1293C14.213 25.1254 14.2392 25.1344 14.2581 25.1513C14.3758 25.2576 14.4587 25.3992 14.5156 25.5458C14.5712 25.6932 14.5984 25.8466 14.6111 25.9987C14.6231 26.1509 14.6168 26.3016 14.5976 26.4497C14.588 26.5239 14.5743 26.5971 14.5561 26.6695C14.547 26.7056 14.5376 26.742 14.5261 26.7777C14.5142 26.8147 14.5029 26.8476 14.4858 26.8891C14.4335 27.0158 14.2883 27.0762 14.1615 27.0239C14.0597 26.9819 14.0007 26.88 14.0085 26.7758L14.0106 26.7486Z" fill="#000072"></path><path d="M11.2907 25.7515C11.1539 25.7515 11.043 25.6405 11.043 25.5037V21.5559C11.043 21.419 11.1539 21.3081 11.2907 21.3081C11.4275 21.3081 11.5384 21.419 11.5384 21.5559V25.5037C11.5384 25.6405 11.4275 25.7515 11.2907 25.7515Z" fill="#000072"></path><path d="M8.22115 27.1182C7.60237 27.1182 7.04611 27.0434 6.60357 26.9545C6.13919 26.8613 5.73004 26.5762 5.481 26.1723C5.23348 25.771 5.16507 25.3022 5.28836 24.8522C5.42638 24.3485 5.70627 23.9559 5.91678 23.7153C6.0287 23.5874 6.07621 23.4162 6.04389 23.2573C5.90929 22.5955 5.64761 22.0584 5.50701 21.7699L5.502 21.7596C5.33831 21.4236 5.19969 21.075 5.08991 20.7235C4.0054 17.2514 5.34712 15.1133 5.40477 15.0239L5.41024 15.0159C5.45174 14.9568 6.48172 13.5698 11.2896 13.5698C16.0974 13.5698 17.1274 14.9568 17.1689 15.0159L17.1743 15.0239C17.232 15.1133 18.5737 17.2514 17.4892 20.7235C17.3794 21.075 17.2408 21.4236 17.0771 21.7596H17.0771L17.0721 21.7699C16.9315 22.0584 16.6698 22.5955 16.5352 23.2573C16.5029 23.4162 16.5504 23.5874 16.6623 23.7153C16.8729 23.9559 17.1527 24.3485 17.2908 24.8522C17.414 25.3022 17.3456 25.771 17.0981 26.1723C16.8491 26.5762 16.4399 26.8613 15.9756 26.9545C15.0803 27.1342 13.7191 27.2565 12.3181 26.8182C11.9004 26.6876 11.5406 26.4393 11.2896 26.1115C11.0385 26.4393 10.6788 26.6875 10.261 26.8182C9.55259 27.0399 8.85416 27.1182 8.22115 27.1182ZM5.81654 15.3C5.73382 15.4372 4.58241 17.4368 5.56284 20.5758C5.66523 20.9036 5.7946 21.2289 5.94743 21.5426L5.95241 21.5529C6.10264 21.8612 6.38226 22.4351 6.52942 23.1586C6.59235 23.4679 6.50272 23.798 6.28967 24.0416C6.11333 24.2431 5.87937 24.5701 5.76618 24.9831C5.67959 25.2992 5.72808 25.6291 5.9027 25.9123C6.07992 26.1996 6.37093 26.4025 6.70111 26.4688C7.53955 26.6371 8.81216 26.7524 10.1131 26.3454C10.4744 26.2323 10.777 26.0073 10.965 25.7118C10.9792 25.6896 10.9928 25.6668 11.0058 25.6435C11.0294 25.6011 11.0418 25.5529 11.0418 25.5041H11.5373C11.5373 25.5529 11.5498 25.6011 11.5733 25.6434C11.5863 25.6668 11.6 25.6896 11.6141 25.7118C11.8021 26.0073 12.1047 26.2323 12.466 26.3454C13.767 26.7523 15.0395 26.6371 15.878 26.4688C16.2082 26.4025 16.4992 26.1996 16.6764 25.9122C16.851 25.6291 16.8995 25.2991 16.8129 24.9831C16.6997 24.5701 16.4658 24.2431 16.2894 24.0416C16.0764 23.798 15.9868 23.4679 16.0497 23.1585C16.1968 22.435 16.4765 21.8611 16.6267 21.5528L16.6317 21.5426C16.7845 21.2289 16.9139 20.9036 17.0163 20.5758C18.005 17.4104 16.8372 15.4216 16.7617 15.2985C16.7134 15.2403 15.6801 14.0653 11.2895 14.0653C6.93763 14.0653 5.88411 15.2198 5.81654 15.3Z" fill="#000072"></path><path d="M3.28213 11.8972C0.382023 11.6984 -0.0176439 10.2242 0.378725 8.71192C0.682058 7.55089 1.45443 6.36729 1.92511 5.71988C2.17339 5.37857 2.36002 4.99706 2.48444 4.59353C4.13928 -0.783873 7.76275 0.937581 7.76275 0.937581C7.76275 0.937581 7.77322 1.00859 7.79028 1.13852C7.98461 2.65957 8.99204 12.2886 3.28213 11.8972Z" fill="#FFA910"></path><g opacity="0.3"><path d="M3.28213 11.8949C0.382023 11.6962 -0.0176439 10.2219 0.378725 8.70963C0.383 8.71608 0.387304 8.72252 0.391618 8.72896C1.02174 9.66918 2.4707 9.43109 2.77399 8.34062C2.93138 7.77473 3.08637 7.11049 3.18359 6.42336C3.39829 4.90394 4.79659 1.32891 7.79028 1.13623C7.98461 2.65729 8.99204 12.2863 3.28213 11.8949Z" fill="#000072"></path></g><g opacity="0.7"><path d="M1.75908 6.3805C2.00736 6.03919 2.19398 5.65767 2.3184 5.25415C3.97324 -0.123255 7.59672 1.5982 7.59672 1.5982C7.59672 1.5982 7.60717 1.66921 7.62424 1.79913C7.72801 2.61138 8.06352 5.73553 7.48435 8.41134C8.28654 5.6139 7.90185 2.01871 7.78939 1.13852C7.77233 1.00859 7.76187 0.93758 7.76187 0.93758C7.76187 0.93758 4.13839 -0.783872 2.48355 4.59353C2.35913 4.99706 2.17252 5.37856 1.92423 5.71988C1.45354 6.36729 0.681173 7.55089 0.37784 8.71192C0.345023 8.83711 0.317815 8.96203 0.296875 9.08599C0.641286 8.0205 1.3271 6.97467 1.75908 6.3805Z" fill="white"></path></g><path d="M3.61302 12.1558C3.49861 12.1558 3.38232 12.1518 3.26407 12.1437C1.65552 12.0335 0.627739 11.5233 0.209241 10.6272C-0.525561 9.05397 0.842689 6.78563 1.72368 5.57351C1.95186 5.25955 2.1277 4.90494 2.24632 4.51958C2.85415 2.54475 3.79464 1.26532 5.04167 0.716828C6.49695 0.0766957 7.8127 0.686458 7.86804 0.712766L7.98702 0.769299L8.0067 0.899552C8.00939 0.917426 8.2757 2.71069 8.22035 4.82235C8.14517 7.68988 7.54447 9.75421 6.43488 10.958C5.70136 11.7537 4.75329 12.1558 3.61302 12.1558ZM6.43509 0.923732C6.0722 0.923732 5.65793 0.985768 5.23423 1.1734C4.12819 1.66325 3.28222 2.83811 2.71984 4.66533C2.58513 5.10302 2.38479 5.50658 2.12445 5.86481C1.46682 6.7696 0.00749243 9.02446 0.658138 10.4176C0.994627 11.138 1.88277 11.5524 3.29792 11.6494C4.43749 11.7275 5.37032 11.3818 6.07054 10.6222C8.34106 8.15892 7.6651 2.10877 7.53578 1.1128C7.34425 1.04364 6.93941 0.923732 6.43509 0.923732Z" fill="#000072"></path><path d="M19.2969 11.8972C22.197 11.6985 22.5967 10.2242 22.2003 8.71193C21.897 7.5509 21.1246 6.3673 20.6539 5.71989C20.4057 5.37858 20.219 4.99707 20.0946 4.59354C18.4398 -0.783873 14.8163 0.93758 14.8163 0.93758C14.8163 0.93758 14.8058 1.00859 14.7888 1.13852C14.5944 2.65958 13.587 12.2886 19.2969 11.8972Z" fill="#FFA910"></path><g opacity="0.3"><path d="M19.3008 11.8949C22.2009 11.6962 22.6006 10.2219 22.2042 8.70963C22.2 8.71608 22.1957 8.72252 22.1913 8.72896C21.5612 9.66918 20.1123 9.43109 19.809 8.34062C19.6516 7.77473 19.4966 7.11049 19.3994 6.42336C19.1847 4.90394 17.7864 1.32891 14.7927 1.13623C14.5984 2.65729 13.5909 12.2863 19.3008 11.8949Z" fill="#000072"></path></g><g opacity="0.7"><path d="M20.8191 6.3805C20.5708 6.03919 20.3842 5.65767 20.2598 5.25415C18.6049 -0.123255 14.9814 1.5982 14.9814 1.5982C14.9814 1.5982 14.971 1.66921 14.9539 1.79913C14.8501 2.61138 14.5146 5.73553 15.0938 8.41134C14.2916 5.6139 14.6763 2.01871 14.7888 1.13852C14.8058 1.00859 14.8163 0.93758 14.8163 0.93758C14.8163 0.93758 18.4398 -0.783872 20.0946 4.59353C20.219 4.99706 20.4056 5.37856 20.6539 5.71988C21.1246 6.36729 21.897 7.55089 22.2003 8.71192C22.2331 8.83711 22.2603 8.96203 22.2813 9.08599C21.9369 8.0205 21.2511 6.97467 20.8191 6.3805Z" fill="white"></path></g><path d="M18.9664 12.1558C17.8261 12.1558 16.8781 11.7537 16.1446 10.9579C15.035 9.75416 14.4343 7.68983 14.3591 4.8223C14.3038 2.71063 14.5701 0.917376 14.5728 0.899502L14.5925 0.769249L14.7114 0.712716C14.7668 0.686437 16.0825 0.0767427 17.5378 0.716778C18.7848 1.26527 19.7253 2.54471 20.3332 4.51953C20.4518 4.9049 20.6276 5.2595 20.8558 5.57346C21.7368 6.78558 23.105 9.05392 22.3702 10.6272C21.9517 11.5232 20.9239 12.0334 19.3154 12.1436C19.1972 12.1517 19.0808 12.1558 18.9664 12.1558ZM15.0438 1.11208C14.9149 2.10653 14.2393 8.16041 16.5092 10.6225C17.2094 11.3819 18.1422 11.7273 19.2815 11.6493C20.6967 11.5524 21.5848 11.1379 21.9213 10.4175C22.572 9.0244 21.1126 6.76955 20.455 5.86476C20.1947 5.50652 19.9943 5.10298 19.8596 4.66528C19.296 2.83414 18.4477 1.65827 17.3383 1.1703C16.3224 0.723462 15.3709 0.992624 15.0438 1.11208Z" fill="#000072"></path><path d="M11.2891 16.411C1.18723 16.411 2.4925 11.9464 3.05898 10.6367C3.11898 10.4974 3.17624 10.3488 3.22963 10.1936C3.50709 9.39421 3.69922 8.43191 3.80658 7.80653C3.86272 7.47898 3.90347 7.14867 3.93595 6.81781C4.61748 -0.0586398 11.2891 0.249646 11.2891 0.249646C11.2891 0.249646 17.9608 -0.0586398 18.6423 6.81781C18.6748 7.14867 18.7155 7.47898 18.7717 7.80653C18.9 8.55303 19.1488 9.78067 19.5193 10.6367C20.0858 11.9464 21.391 16.411 11.2891 16.411Z" fill="#FFA910"></path><path d="M19.5193 10.6374C19.4593 10.4981 19.402 10.3495 19.3486 10.1943C18.8048 9.92231 17.8785 9.67461 16.6533 10.1418C15.5432 10.565 14.2868 10.2764 13.4736 9.41031C13.4018 9.33383 13.3289 9.25334 13.255 9.16866C13.0093 8.88671 12.7819 8.63947 12.5756 8.42453C11.8743 7.69378 10.7039 7.69378 10.0026 8.42453C9.79638 8.63947 9.56899 8.88671 9.32326 9.16866C9.24942 9.25335 9.1765 9.33384 9.10469 9.41031C8.2915 10.2764 7.03504 10.565 5.92498 10.1418C4.6998 9.67461 3.77352 9.92232 3.22963 10.1943C3.17623 10.3495 3.11898 10.4981 3.05898 10.6374C2.4925 11.9471 1.18723 16.4117 11.2891 16.4117C21.391 16.4117 20.0858 11.9471 19.5193 10.6374Z" fill="white"></path><g opacity="0.3"><path d="M11.2891 16.4126C1.18723 16.4126 2.4925 11.9479 3.05898 10.6382C3.09751 10.5485 3.13495 10.4549 3.17128 10.358C2.8118 12.0178 3.3012 15.0027 11.2891 15.0027C19.2787 15.0027 19.7665 12.0167 19.407 10.3569C19.4428 10.4544 19.4802 10.5485 19.5193 10.6382C20.0858 11.9479 21.391 16.4126 11.2891 16.4126Z" fill="#000072"></path></g><g opacity="0.7"><path d="M19.5191 10.6367C19.1487 9.78067 18.8998 8.55303 18.7716 7.80653C18.7154 7.47898 18.6747 7.14867 18.6422 6.81781C17.9606 -0.0586398 11.289 0.249646 11.289 0.249646C11.289 0.249646 4.61732 -0.0586398 3.9358 6.81781C3.90332 7.14867 3.86258 7.47898 3.80642 7.80653C3.69907 8.43191 3.50694 9.39421 3.22948 10.1936C3.17608 10.3488 3.11883 10.4974 3.05882 10.6367C2.85317 11.1122 2.55031 12.0035 2.73109 12.946C2.72138 12.2177 2.94891 11.5686 3.11388 11.1872C3.17388 11.0479 3.23114 10.8993 3.28453 10.7441C3.56199 9.94472 3.75412 8.98242 3.86148 8.35704C3.91762 8.02949 3.95837 7.69918 3.99085 7.36832C4.32053 4.04195 6.05188 2.39691 7.75169 1.58481C7.88708 1.84786 8.50044 1.90887 9.17174 1.71607C9.83819 1.52465 10.3237 1.15147 10.3064 0.857628C10.9336 0.781326 11.344 0.800148 11.344 0.800148C11.344 0.800148 18.0157 0.491862 18.6972 7.36831C18.7297 7.69917 18.7705 8.02948 18.8266 8.35703C18.9549 9.10353 19.2037 10.3312 19.5742 11.1872C19.6854 11.4443 19.825 11.8229 19.9013 12.2655C19.8847 11.5903 19.6742 10.9953 19.5191 10.6367Z" fill="white"></path></g><path d="M13.4108 10.8014C13.4108 11.4611 12.461 12.1611 11.2894 12.1611C10.1178 12.1611 9.16797 11.4611 9.16797 10.8014C9.16797 10.1417 10.1178 9.60693 11.2894 9.60693C12.461 9.60693 13.4108 10.1417 13.4108 10.8014Z" fill="#000072"></path><path d="M11.2906 10.4065C11.9128 10.4065 12.4172 10.3167 12.4172 10.2059C12.4172 10.0952 11.9128 10.0054 11.2906 10.0054C10.6685 10.0054 10.1641 10.0952 10.1641 10.2059C10.1641 10.3167 10.6685 10.4065 11.2906 10.4065Z" fill="white"></path><path d="M8.01393 11.5297C8.06072 11.9173 8.19886 12.309 8.43998 12.5795C8.56248 12.7128 8.70621 12.8193 8.87191 12.8828L8.9339 12.9064L8.99812 12.9252C9.03995 12.9398 9.08557 12.9458 9.12877 12.957C9.17392 12.9632 9.21838 12.9715 9.2641 12.9755C9.31039 12.9774 9.35522 12.9852 9.40229 12.9839C9.4941 12.9864 9.59182 12.9827 9.6862 12.9748C9.73363 12.9711 9.78079 12.9667 9.8271 12.9591C9.87401 12.9537 9.91961 12.9443 9.96522 12.9352C10.0112 12.9271 10.0551 12.9139 10.1 12.9034C10.1433 12.8891 10.1881 12.8781 10.2298 12.8608C10.3152 12.8301 10.3961 12.7919 10.4734 12.7485C10.6289 12.6629 10.7684 12.5531 10.8917 12.4189C10.9531 12.3517 11.01 12.2783 11.0635 12.1999C11.0896 12.1605 11.1153 12.1199 11.1401 12.0782C11.1638 12.0373 11.1876 11.991 11.208 11.9525L11.2142 11.9407C11.2357 11.9 11.2861 11.8846 11.3267 11.906C11.3535 11.9202 11.3694 11.9471 11.3709 11.9752C11.3743 12.0386 11.3712 12.0925 11.3636 12.15C11.3567 12.2066 11.3447 12.2625 11.3295 12.3177C11.2985 12.4279 11.2534 12.5355 11.1941 12.6361C11.0762 12.8377 10.9031 13.0121 10.7012 13.1343C10.6005 13.1956 10.494 13.247 10.3844 13.2848C10.3301 13.3062 10.2744 13.3203 10.2192 13.3374C10.1636 13.3503 10.108 13.3662 10.0521 13.3753C9.99608 13.3853 9.94012 13.3951 9.88417 13.4005C9.82817 13.4081 9.77236 13.4122 9.71663 13.4152C9.60492 13.4222 9.49559 13.4209 9.38098 13.414C9.15464 13.3999 8.92197 13.3492 8.7092 13.2436C8.60312 13.1916 8.50147 13.128 8.41118 13.0511C8.32019 12.9755 8.23802 12.8893 8.17114 12.794C8.10323 12.6996 8.04654 12.5992 8.00032 12.4958C7.95471 12.3921 7.92088 12.2851 7.8953 12.1777C7.86916 12.0703 7.85394 11.9615 7.84582 11.8531C7.83758 11.7437 7.83722 11.6383 7.84877 11.525C7.85341 11.4796 7.89402 11.4465 7.93947 11.4511C7.97868 11.4551 8.00869 11.4859 8.01322 11.5235L8.01393 11.5297Z" fill="#000072"></path><path d="M11.5635 11.927C11.5631 11.9237 11.5636 11.9261 11.5639 11.9274L11.565 11.9325L11.568 11.9449L11.5754 11.9724C11.5807 11.9913 11.5871 12.0107 11.5938 12.0301C11.6076 12.069 11.6237 12.1079 11.6408 12.1462C11.6763 12.2224 11.7191 12.2953 11.7678 12.3633C11.8665 12.4983 11.9905 12.6128 12.1364 12.6996C12.2093 12.743 12.2865 12.7813 12.3687 12.8121C12.4088 12.8294 12.4521 12.8406 12.4939 12.8551C12.5375 12.8658 12.5799 12.8795 12.6247 12.8877C12.6692 12.8968 12.7136 12.9062 12.7595 12.9117C12.8047 12.9198 12.8509 12.9248 12.8974 12.9291C12.9899 12.9385 13.0864 12.9421 13.1759 12.9405C13.3576 12.9373 13.5327 12.9083 13.6907 12.8447C13.8499 12.7828 13.9876 12.6812 14.1047 12.5522C14.3394 12.294 14.4848 11.9172 14.5668 11.5309L14.5682 11.5244C14.5777 11.4795 14.6219 11.4508 14.6668 11.4603C14.7006 11.4675 14.7252 11.4943 14.7313 11.5262C14.7527 11.6395 14.7578 11.7463 14.7557 11.8575C14.7533 11.9678 14.7409 12.0787 14.7183 12.189C14.6741 12.4093 14.5856 12.6293 14.445 12.8237C14.3755 12.9212 14.2903 13.0095 14.1964 13.0871C14.103 13.166 13.9981 13.231 13.8889 13.2841C13.78 13.3397 13.6648 13.3753 13.5497 13.4071C13.4919 13.4195 13.4337 13.4329 13.3756 13.441C13.3178 13.4472 13.2591 13.4582 13.2017 13.4597C13.0847 13.4676 12.9742 13.4687 12.8606 13.4631C12.8039 13.4607 12.7471 13.4572 12.69 13.4502C12.633 13.4449 12.5759 13.4351 12.5188 13.4251C12.4616 13.4162 12.4046 13.4007 12.3476 13.388C12.291 13.3711 12.2338 13.3572 12.1778 13.3358C12.065 13.2981 11.9548 13.2467 11.8497 13.1854C11.7445 13.1242 11.6439 13.0526 11.5524 12.9698C11.4611 12.887 11.379 12.794 11.3072 12.694C11.2352 12.5941 11.176 12.4861 11.1269 12.3737C11.1027 12.3174 11.0811 12.2599 11.0633 12.2004C11.0545 12.1705 11.0461 12.1404 11.0388 12.1092L11.0283 12.0612L11.0235 12.0357L11.0183 12.0031C10.9973 11.8525 11.1023 11.7134 11.2528 11.6924C11.4034 11.6714 11.5425 11.7764 11.5635 11.927Z" fill="#000072"></path><path d="M7.99893 9.42254C8.55063 9.42254 8.99787 8.85433 8.99787 8.15341C8.99787 7.45249 8.55063 6.88428 7.99893 6.88428C7.44724 6.88428 7 7.45249 7 8.15341C7 8.85433 7.44724 9.42254 7.99893 9.42254Z" fill="#000072"></path><path d="M8.25356 8.50389C8.48206 8.50389 8.66728 8.26856 8.66728 7.97826C8.66728 7.68797 8.48206 7.45264 8.25356 7.45264C8.02507 7.45264 7.83984 7.68797 7.83984 7.97826C7.83984 8.26856 8.02507 8.50389 8.25356 8.50389Z" fill="white"></path><path d="M8.25432 8.5288C8.01284 8.5288 7.81641 8.28216 7.81641 7.97901C7.81641 7.67584 8.01284 7.4292 8.25432 7.4292C8.49576 7.4292 8.6922 7.67583 8.6922 7.97901C8.6922 8.28215 8.49576 8.5288 8.25432 8.5288ZM8.25432 7.47756C8.03953 7.47756 7.86477 7.7025 7.86477 7.97901C7.86477 8.2555 8.03953 8.48044 8.25432 8.48044C8.4691 8.48044 8.64384 8.2555 8.64384 7.97901C8.64384 7.7025 8.4691 7.47756 8.25432 7.47756Z" fill="#000072"></path><path d="M14.5771 9.42254C15.1288 9.42254 15.576 8.85433 15.576 8.15341C15.576 7.45249 15.1288 6.88428 14.5771 6.88428C14.0254 6.88428 13.5781 7.45249 13.5781 8.15341C13.5781 8.85433 14.0254 9.42254 14.5771 9.42254Z" fill="#000072"></path><path d="M14.32 8.50389C14.5485 8.50389 14.7337 8.26856 14.7337 7.97826C14.7337 7.68797 14.5485 7.45264 14.32 7.45264C14.0915 7.45264 13.9062 7.68797 13.9062 7.97826C13.9062 8.26856 14.0915 8.50389 14.32 8.50389Z" fill="white"></path><path d="M11.2894 16.6589C6.86009 16.6589 4.05253 15.804 2.94472 14.118C2.07323 12.7916 2.49995 11.3059 2.83188 10.5384C3.19961 9.68793 3.44762 8.43551 3.56273 7.76463C3.6128 7.47303 3.6532 7.16442 3.68994 6.79341C4.05349 3.12275 6.10794 1.4694 7.76739 0.728736C9.49716 -0.0433224 11.1242 -0.00449908 11.2894 0.00174904C11.4546 -0.00436367 13.0817 -0.0432548 14.8114 0.728736C16.4709 1.46939 18.5253 3.12275 18.8889 6.79341C18.9256 7.16442 18.966 7.47303 19.0161 7.76461C19.1312 8.43554 19.3792 9.68803 19.7469 10.5384C20.0789 11.3059 20.5056 12.7916 19.6341 14.118C18.5263 15.804 15.7187 16.6589 11.2894 16.6589ZM11.1712 0.495602C10.7819 0.495602 9.38626 0.544455 7.95291 1.18853C5.72371 2.19021 4.45533 4.0924 4.18297 6.84224C4.14557 7.21998 4.10242 7.5491 4.05105 7.84843C3.90587 8.69454 3.65538 9.88219 3.28661 10.735C2.99432 11.4109 2.615 12.7139 3.35879 13.8459C3.80442 14.5241 4.5954 15.063 5.70976 15.4475C7.08651 15.9225 8.96377 16.1634 11.2894 16.1634C13.615 16.1634 15.4923 15.9226 16.869 15.4475C17.9834 15.063 18.7744 14.5241 19.22 13.8459C19.9638 12.7139 19.5845 11.4109 19.2922 10.735C18.9234 9.88228 18.6729 8.69458 18.5277 7.8484C18.4763 7.5491 18.4332 7.21998 18.3958 6.84224C18.1235 4.0924 16.8551 2.19021 14.6259 1.18853C12.9454 0.433449 11.3168 0.496617 11.3006 0.497159L11.2894 0.497681L11.2779 0.497159C11.2756 0.497043 11.2384 0.495602 11.1712 0.495602Z" fill="#000072"></path><path d="M11.2905 17.2877C13.0939 17.2877 13.7435 16.052 13.3967 14.9195C13.2355 14.3928 13.2988 13.1891 13.2988 13.1891C13.2988 13.1891 11.3766 13.3417 11.2901 11.8022C11.2036 13.3417 9.28141 13.1891 9.28141 13.1891C9.28141 13.1891 9.34468 14.3928 9.18344 14.9195C8.83671 16.052 9.48624 17.2877 11.2896 17.2877" fill="#F958A9"></path><path d="M11.5377 11.8013C11.5642 12.1124 11.5696 12.4235 11.5721 12.7347C11.5726 13.0458 11.5651 13.3569 11.5513 13.6681C11.5374 13.9792 11.5189 14.2903 11.4831 14.6015C11.447 14.9126 11.4022 15.2238 11.3234 15.5349C11.3187 15.5533 11.2999 15.5645 11.2815 15.5598C11.2688 15.5566 11.2596 15.5467 11.2565 15.5349C11.1777 15.2238 11.1329 14.9126 11.0968 14.6015C11.0611 14.2903 11.0425 13.9792 11.0286 13.6681C11.0148 13.3569 11.0073 13.0458 11.0078 12.7347C11.0103 12.4235 11.0157 12.1124 11.0422 11.8013C11.0539 11.6644 11.1743 11.563 11.3111 11.5746C11.4336 11.5851 11.5277 11.6827 11.5377 11.8013Z" fill="#000072"></path><path d="M11.2885 17.5357C11.2882 17.5357 11.2879 17.5357 11.2876 17.5357C10.3701 17.5357 9.63351 17.223 9.21359 16.6553C8.84383 16.1554 8.74577 15.4963 8.94455 14.8472C9.06613 14.45 9.04889 13.5251 9.03198 13.2023L9.01722 12.92L9.29898 12.9424C9.30743 12.943 10.1867 13.0042 10.6907 12.5626C10.9076 12.3726 11.0221 12.1194 11.0407 11.7886H11.5354C11.554 12.1194 11.6685 12.3726 11.8854 12.5626C12.3893 13.0041 13.2688 12.9431 13.2775 12.9423L13.5584 12.921L13.5441 13.2023C13.5272 13.5251 13.51 14.45 13.6316 14.8472C13.8303 15.4963 13.7323 16.1554 13.3625 16.6553C12.9426 17.223 12.206 17.5357 11.2885 17.5357ZM9.53607 13.4393C9.54534 13.8365 9.54336 14.5837 9.41831 14.9922C9.26601 15.4896 9.33661 15.9884 9.61194 16.3607C9.94076 16.8052 10.5202 17.0402 11.2876 17.0402C11.2879 17.0402 11.2882 17.0402 11.2885 17.0402C12.0559 17.0402 12.6354 16.8052 12.9642 16.3607C13.2395 15.9884 13.3101 15.4896 13.1578 14.9922C13.0328 14.5837 13.0308 13.8365 13.0401 13.4393C12.6744 13.426 12.0238 13.3411 11.561 12.9371C11.4537 12.8434 11.3626 12.7385 11.2881 12.6229C11.2135 12.7385 11.1225 12.8434 11.0152 12.9371C10.5524 13.3411 9.90174 13.426 9.53607 13.4393Z" fill="#000072"></path><path d="M10.3355 11.064C10.3355 11.064 9.56869 12.4914 7.92895 11.5241C7.92895 11.5241 7.77953 13.1992 9.5333 13.1992C11.2871 13.1992 11.2871 11.4651 11.2871 11.4651L10.3355 11.064Z" fill="white"></path><path d="M12.2407 11.064C12.2407 11.064 13.0074 12.4914 14.6472 11.5241C14.6472 11.5241 14.7966 13.1992 13.0428 13.1992C11.2891 13.1992 11.2891 11.4651 11.2891 11.4651L12.2407 11.064Z" fill="white"></path><g opacity="0.3"><path d="M14.6452 11.377C14.6452 11.377 14.4298 12.0848 13.4084 12.2529C13.0283 12.3155 12.7382 12.2306 12.5236 12.0993C13.0597 11.8347 13.4093 11.4202 13.4093 11.0202C13.4093 10.3605 12.4595 9.82568 11.2878 9.82568C10.1162 9.82568 9.16641 10.3605 9.16641 11.0202C9.16641 11.4201 9.51576 11.8345 10.0516 12.0991C9.83695 12.2304 9.54671 12.3155 9.16641 12.2529C8.145 12.0848 7.92958 11.377 7.92958 11.377C7.92958 11.377 7.04497 13.5771 9.48689 13.8013C9.48689 13.8013 10.3865 13.9074 11.2874 13.1524C12.1883 13.9074 13.0879 13.8013 13.0879 13.8013C15.5298 13.5771 14.6452 11.377 14.6452 11.377Z" fill="#000072"></path></g><path d="M13.4108 10.7995C13.4108 11.4592 12.461 12.1591 11.2894 12.1591C10.1178 12.1591 9.16797 11.4592 9.16797 10.7995C9.16797 10.1398 10.1178 9.60498 11.2894 9.60498C12.461 9.60498 13.4108 10.1398 13.4108 10.7995Z" fill="#000072"></path><path d="M11.2906 10.4045C11.9128 10.4045 12.4172 10.3147 12.4172 10.204C12.4172 10.0932 11.9128 10.0034 11.2906 10.0034C10.6685 10.0034 10.1641 10.0932 10.1641 10.204C10.1641 10.3147 10.6685 10.4045 11.2906 10.4045Z" fill="white"></path><path d="M11.562 12.0011L11.5569 12.0337L11.552 12.0593L11.5416 12.1072C11.5342 12.1384 11.5259 12.1685 11.517 12.1984C11.4992 12.2579 11.4776 12.3154 11.4534 12.3718C11.4043 12.4841 11.3451 12.5922 11.2731 12.6921C11.2013 12.792 11.1192 12.885 11.0279 12.9679C10.9365 13.0506 10.8358 13.1222 10.7306 13.1835C10.6255 13.2448 10.5153 13.2961 10.4025 13.3339C10.3465 13.3553 10.2894 13.3691 10.2327 13.3861C10.1757 13.3988 10.1187 13.4142 10.0616 13.4232C10.0044 13.4332 9.94732 13.443 9.89037 13.4483C9.83323 13.4553 9.77643 13.4588 9.71977 13.4612C9.60616 13.4668 9.49568 13.4657 9.37868 13.4578C9.32124 13.4562 9.26253 13.4453 9.20471 13.4391C9.14668 13.4309 9.08838 13.4176 9.03068 13.4052C8.91551 13.3734 8.80033 13.3377 8.6914 13.2822C8.5822 13.2291 8.47729 13.164 8.38394 13.0852C8.29004 13.0076 8.20488 12.9193 8.13534 12.8218C7.99471 12.6273 7.90624 12.4074 7.86203 12.187C7.83939 12.0768 7.82706 11.9658 7.82468 11.8556C7.82249 11.7444 7.82766 11.6376 7.84907 11.5243C7.85761 11.4791 7.90112 11.4495 7.94626 11.458C7.98019 11.4644 8.00538 11.4906 8.01216 11.5224L8.01354 11.5289C8.09553 11.9153 8.2409 12.292 8.47568 12.5502C8.5927 12.6792 8.7304 12.7809 8.8896 12.8427C9.04768 12.9064 9.22272 12.9353 9.40446 12.9385C9.4939 12.9401 9.59046 12.9366 9.68293 12.9272C9.72946 12.9229 9.77562 12.9178 9.82079 12.9098C9.86669 12.9042 9.91114 12.8948 9.95559 12.8857C10.0004 12.8775 10.0428 12.8638 10.0864 12.8532C10.1282 12.8387 10.1716 12.8274 10.2116 12.8101C10.2938 12.7794 10.371 12.7411 10.4439 12.6977C10.5898 12.6108 10.7139 12.4964 10.8125 12.3613C10.8613 12.2934 10.904 12.2205 10.9395 12.1442C10.9567 12.1059 10.9727 12.0671 10.9866 12.0282C10.9932 12.0088 10.9996 11.9893 11.005 11.9704L11.0123 11.943L11.0153 11.9306L11.0165 11.9255C11.0168 11.9242 11.0172 11.9218 11.0168 11.925C11.0379 11.7745 11.177 11.6694 11.3275 11.6905C11.478 11.7115 11.583 11.8506 11.562 12.0011Z" fill="#000072"></path><path d="M11.5596 11.925C11.5592 11.9218 11.5597 11.9241 11.56 11.9255L11.5611 11.9306L11.5641 11.9429L11.5715 11.9704C11.5768 11.9893 11.5832 12.0088 11.5899 12.0282C11.6037 12.0671 11.6198 12.1059 11.6369 12.1442C11.6724 12.2205 11.7152 12.2933 11.7639 12.3613C11.8626 12.4964 11.9866 12.6108 12.1325 12.6977C12.2054 12.7411 12.2826 12.7794 12.3648 12.8101C12.4049 12.8274 12.4482 12.8387 12.49 12.8532C12.5336 12.8638 12.576 12.8775 12.6208 12.8857C12.6653 12.8948 12.7097 12.9042 12.7556 12.9098C12.8008 12.9178 12.847 12.9229 12.8935 12.9271C12.986 12.9366 13.0825 12.9401 13.172 12.9385C13.3537 12.9353 13.5288 12.9063 13.6868 12.8427C13.846 12.7809 13.9837 12.6792 14.1007 12.5502C14.3355 12.292 14.4809 11.9153 14.5629 11.5289L14.5643 11.5225C14.5738 11.4775 14.618 11.4488 14.6629 11.4584C14.6967 11.4655 14.7213 11.4924 14.7274 11.5243C14.7488 11.6376 14.7539 11.7444 14.7517 11.8555C14.7494 11.9658 14.737 12.0768 14.7144 12.187C14.6702 12.4074 14.5817 12.6273 14.4411 12.8218C14.3716 12.9193 14.2864 13.0076 14.1925 13.0852C14.0991 13.164 13.9942 13.2291 13.885 13.2822C13.7761 13.3377 13.6609 13.3734 13.5457 13.4052C13.488 13.4176 13.4297 13.4309 13.3717 13.4391C13.3139 13.4453 13.2552 13.4562 13.1977 13.4578C13.0807 13.4657 12.9703 13.4668 12.8567 13.4612C12.8 13.4588 12.7432 13.4553 12.6861 13.4483C12.6291 13.443 12.572 13.4332 12.5149 13.4232C12.4577 13.4142 12.4007 13.3988 12.3437 13.3861C12.287 13.3691 12.2299 13.3553 12.1739 13.3339C12.0611 13.2961 11.9509 13.2448 11.8458 13.1835C11.7406 13.1222 11.64 13.0506 11.5485 12.9679C11.4572 12.885 11.3751 12.792 11.3033 12.6921C11.2313 12.5922 11.1721 12.4841 11.123 12.3718C11.0988 12.3154 11.0772 12.2579 11.0594 12.1984C11.0506 12.1685 11.0422 12.1384 11.0349 12.1072L11.0244 12.0593L11.0196 12.0337L11.0144 12.0011C10.9934 11.8506 11.0984 11.7115 11.2489 11.6904C11.3995 11.6694 11.5386 11.7744 11.5596 11.925Z" fill="#000072"></path></svg>