<svg xmlns="http://www.w3.org/2000/svg" width="16" height="15" viewBox="0 0 16 15" fill="none"><g clip-path="url(#clip0_2471_6096)"><path d="M7.90117 14.6012C11.8776 14.6012 15.1012 11.3776 15.1012 7.40117C15.1012 3.42472 11.8776 0.201172 7.90117 0.201172C3.92472 0.201172 0.701172 3.42472 0.701172 7.40117C0.701172 11.3776 3.92472 14.6012 7.90117 14.6012Z" fill="white"></path><path d="M12.7032 7.40138C12.7046 7.50002 12.6924 7.59849 12.6665 7.69371C12.6405 7.78893 12.6013 7.88019 12.5498 7.96443C12.4985 8.04867 12.4355 8.12535 12.3628 8.19213C12.2901 8.25891 12.2084 8.31507 12.12 8.35899C12.122 8.38527 12.1236 8.41173 12.1245 8.43819C12.1266 8.49097 12.1266 8.54382 12.1245 8.5966C12.1236 8.62306 12.122 8.64952 12.12 8.6758C12.12 10.2886 10.2408 11.599 7.92234 11.599C5.60392 11.599 3.7247 10.2886 3.7247 8.6758C3.72272 8.64952 3.7211 8.62306 3.7202 8.5966C3.71803 8.54382 3.71803 8.49097 3.7202 8.43819C3.7211 8.41173 3.72272 8.38527 3.7247 8.35899C3.58623 8.29535 3.46325 8.20237 3.36426 8.08651C3.26527 7.97064 3.19264 7.83465 3.15139 7.68795C3.11021 7.54118 3.10144 7.38721 3.12569 7.23671C3.14993 7.08622 3.20661 6.94279 3.2918 6.81638C3.37691 6.68999 3.4885 6.58362 3.61883 6.50467C3.74916 6.42572 3.8951 6.37608 4.04654 6.35917C4.198 6.3422 4.35134 6.35836 4.49593 6.40653C4.64052 6.45471 4.7729 6.53375 4.88391 6.63818C5.08998 6.4985 5.30589 6.37391 5.52993 6.26539C5.75404 6.15703 5.9857 6.06487 6.22312 5.98999C6.46054 5.91511 6.70318 5.85769 6.94889 5.81791C7.19459 5.77813 7.44299 5.75635 7.69193 5.75257L8.22474 3.25414C8.23068 3.22516 8.24238 3.1978 8.25912 3.17332C8.27568 3.14902 8.2971 3.12814 8.32176 3.11212C8.3466 3.0961 8.37432 3.08512 8.40348 3.07972C8.43246 3.0745 8.46234 3.07504 8.49114 3.08134L10.2552 3.43414C10.4332 3.12832 10.8069 2.99728 11.1368 3.12472C11.4667 3.25216 11.6554 3.60047 11.5816 3.94643C11.508 4.29239 11.1937 4.53359 10.8405 4.51541C10.4872 4.49723 10.1994 4.22507 10.1616 3.87335L8.62074 3.54934L8.15274 5.79577C8.39862 5.80099 8.64396 5.82403 8.8866 5.86453C9.37251 5.94552 9.84418 6.09624 10.287 6.31201C10.5082 6.41965 10.7213 6.54309 10.9248 6.68138C11.071 6.54094 11.2548 6.44585 11.454 6.40759C11.6531 6.3692 11.8591 6.38927 12.0471 6.46537C12.2351 6.54144 12.397 6.67029 12.5135 6.83636C12.6299 7.00244 12.6958 7.19868 12.7032 7.40138ZM5.55783 8.39697C5.5942 8.48427 5.64712 8.56366 5.71408 8.63044C5.78086 8.6974 5.86024 8.75032 5.94754 8.78668C6.03492 8.82282 6.12856 8.84141 6.22312 8.8414C6.51436 8.8414 6.77681 8.6659 6.88841 8.39697C6.99983 8.12787 6.93809 7.81827 6.73217 7.61235C6.52624 7.40642 6.21664 7.34468 5.94754 7.4561C5.67862 7.56771 5.50311 7.83015 5.50311 8.12139C5.50311 8.21589 5.52165 8.30949 5.55783 8.39697ZM9.68167 10.1254C9.71857 10.0894 9.73963 10.0402 9.74035 9.98873C9.74107 9.93707 9.72109 9.88739 9.68509 9.85049C9.64909 9.81359 9.59995 9.79253 9.54847 9.79181C9.49681 9.79109 9.44713 9.81107 9.40555 9.84221C9.29728 9.91987 9.18263 9.98821 9.06283 10.0465C8.94301 10.1048 8.81849 10.153 8.69058 10.1903C8.56278 10.2276 8.43192 10.2541 8.29962 10.2694C8.16714 10.2847 8.03376 10.2886 7.90074 10.2814C7.76789 10.2874 7.63469 10.282 7.50275 10.2654C7.37078 10.249 7.24046 10.2213 7.11323 10.1826C6.98579 10.1441 6.86213 10.0948 6.74315 10.0354C6.62416 9.97595 6.5104 9.90647 6.40312 9.82781C6.36586 9.79721 6.31852 9.78155 6.27028 9.78389C6.22204 9.78623 6.1765 9.80657 6.1423 9.84059C6.10828 9.87479 6.08794 9.92033 6.0856 9.96857C6.08326 10.0168 6.09892 10.0642 6.12952 10.1014C6.25606 10.1968 6.39052 10.2811 6.53146 10.3534C6.6724 10.4258 6.81947 10.4857 6.97067 10.5329C7.12187 10.58 7.27685 10.6141 7.43399 10.6348C7.59113 10.6553 7.74971 10.6623 7.90794 10.6558C8.06616 10.6623 8.22474 10.6553 8.38188 10.6348C8.69662 10.5934 9.0019 10.4982 9.28441 10.3534C9.42535 10.2811 9.55981 10.1968 9.68635 10.1014L9.68167 10.1254ZM9.54955 8.899C9.64711 8.90008 9.74395 8.88118 9.83413 8.84374C9.92431 8.80612 10.0059 8.75068 10.0739 8.68066C10.1419 8.61064 10.1949 8.52748 10.2298 8.43621C10.2647 8.34506 10.2807 8.24774 10.2768 8.15019C10.2768 7.85895 10.1013 7.59651 9.83233 7.48491C9.56323 7.37348 9.25363 7.43522 9.04771 7.64115C8.84178 7.84707 8.78004 8.15667 8.89146 8.42577C9.00307 8.6947 9.26551 8.8702 9.55675 8.8702L9.54955 8.899Z" fill="#56111C"></path></g><defs><clipPath id="clip0_2471_6096"><rect width="14.4" height="14.4" fill="white" transform="translate(0.699219 0.201172)"></rect></clipPath></defs></svg>