<svg xmlns="http://www.w3.org/2000/svg" width="15" height="15" viewBox="0 0 15 15" fill="none"><g clip-path="url(#clip0_2471_6089)"><path d="M4.62729 13.2531C10.0615 13.2531 13.0333 8.7483 13.0333 4.84193C13.0333 4.714 13.0307 4.58665 13.0249 4.45983C13.6032 4.04117 14.1022 3.52281 14.4986 2.92903C13.9693 3.16452 13.3996 3.32302 12.802 3.39448C13.412 3.02851 13.8803 2.44953 14.1012 1.7594C13.5212 2.10365 12.8868 2.34632 12.2252 2.47696C11.686 1.90235 10.9185 1.54297 10.0686 1.54297C8.43708 1.54297 7.11404 2.86685 7.11404 4.49874C7.11404 4.73075 7.14 4.95634 7.19069 5.1728C4.73523 5.04917 2.5579 3.87284 1.10072 2.08415C0.838269 2.53529 0.700223 3.04802 0.700682 3.56998C0.700682 4.59561 1.22224 5.50101 2.01541 6.03071C1.54624 6.01637 1.08737 5.88957 0.677384 5.66097C0.676945 5.67338 0.676945 5.68547 0.676945 5.69873C0.676945 7.13038 1.69531 8.32571 3.04715 8.59657C2.79326 8.66575 2.53126 8.70073 2.26812 8.70058C2.07808 8.70058 1.89287 8.68187 1.71287 8.6473C2.08899 9.82188 3.17965 10.6766 4.47275 10.7005C3.46156 11.4936 2.18777 11.9659 0.803355 11.9659C0.567847 11.9661 0.332532 11.9524 0.0986328 11.925C1.40616 12.7635 2.95873 13.2528 4.62743 13.2528" fill="white"></path></g><defs><clipPath id="clip0_2471_6089"><rect width="14.4" height="14.4" fill="white" transform="translate(0.0996094 0.201172)"></rect></clipPath></defs></svg>